# 3ds Max Wavefront OBJ Exporter v0.97b - (c)2007 guruware
# File Created: 08.02.2018 11:35:28

mtllib Concreet_Elements.mtl

#
# object Concrete_Low_Poly
#

v  -8.8853 0.0000 13.4034
v  -8.8853 0.0000 -13.5390
v  -7.1744 0.0000 -13.5390
v  -7.1744 0.0000 13.4034
v  -8.8853 0.0807 13.4034
v  -7.1744 0.0807 13.4034
v  -7.1744 0.0807 -13.5390
v  -8.8853 0.0807 -13.5390
v  -8.9558 0.0000 -12.7832
v  -8.9558 0.0000 -13.5397
v  8.9265 0.0000 -13.5397
v  8.9265 0.0000 -12.7832
v  -8.9558 0.0807 -12.7832
v  8.9265 0.0807 -12.7832
v  8.9265 0.0807 -13.5397
v  -8.9558 0.0807 -13.5397
v  -8.9558 0.0000 -13.2777
v  -8.9558 0.0000 -13.5242
v  8.9265 0.0000 -13.5242
v  8.9265 0.0000 -13.2777
v  -8.9558 0.6607 -13.2777
v  8.9265 0.6607 -13.2777
v  8.9265 0.6607 -13.5242
v  -8.9558 0.6607 -13.5242
v  -8.8664 0.0000 13.3842
v  -8.8664 0.0000 13.1377
v  8.8371 0.0000 13.1377
v  8.8371 0.0000 13.3842
v  -8.8664 0.6607 13.3842
v  8.8371 0.6607 13.3842
v  8.8371 0.6607 13.1377
v  -8.8664 0.6607 13.1377
v  8.6590 0.0000 13.4611
v  8.6590 0.0000 -13.5143
v  8.9265 0.0000 -13.5143
v  8.9265 0.0000 13.4611
v  8.6590 0.6607 13.4611
v  8.9265 0.6607 13.4611
v  8.9265 0.6607 -13.5143
v  8.6590 0.6607 -13.5143
v  -8.9557 0.0000 13.4611
v  -8.9557 0.0000 -13.5143
v  -8.6882 0.0000 -13.5143
v  -8.6882 0.0000 13.4611
v  -8.9557 0.6607 13.4611
v  -8.6882 0.6607 13.4611
v  -8.6882 0.6607 -13.5143
v  -8.9557 0.6607 -13.5143
v  8.1904 0.0000 13.4034
v  8.1904 0.0000 -13.5390
v  8.9160 0.0000 -13.5390
v  8.9160 0.0000 13.4034
v  8.1904 0.0807 13.4034
v  8.9160 0.0807 13.4034
v  8.9160 0.0807 -13.5390
v  8.1904 0.0807 -13.5390
# 56 vertices

vn 0.0000 -1.0000 -0.0000
vn 0.0000 1.0000 -0.0000
vn 0.0000 0.0000 1.0000
vn 1.0000 0.0000 -0.0000
vn 0.0000 0.0000 -1.0000
vn -1.0000 0.0000 -0.0000
# 6 vertex normals

vt 4.0483 -4.8771 0.3679
vt 4.0483 5.8999 0.3679
vt 3.3639 5.8999 0.3679
vt 3.3639 -4.8771 0.3679
vt -3.0483 -4.8771 0.4001
vt -2.3639 -4.8771 0.4001
vt -2.3639 5.8999 0.4001
vt -3.0483 5.8999 0.4001
vt -3.0483 0.3679 -4.8771
vt -2.3639 0.3679 -4.8771
vt -2.3639 0.4001 -4.8771
vt -3.0483 0.4001 -4.8771
vt -4.8771 0.3679 -2.3639
vt 5.8999 0.3679 -2.3639
vt 5.8999 0.4001 -2.3639
vt -4.8771 0.4001 -2.3639
vt 3.3639 0.3679 5.8999
vt 4.0483 0.3679 5.8999
vt 4.0483 0.4001 5.8999
vt 3.3639 0.4001 5.8999
vt -4.8999 0.3679 -3.0483
vt 5.8771 0.3679 -3.0483
vt 5.8771 0.4001 -3.0483
vt -4.8999 0.4001 -3.0483
vt 4.0765 5.5976 0.3679
vt 4.0765 5.9002 0.3679
vt -3.0764 5.9002 0.3679
vt -3.0764 5.5976 0.3679
vt -3.0765 5.5976 0.4001
vt 4.0764 5.5976 0.4001
vt 4.0764 5.9002 0.4001
vt -3.0765 5.9002 0.4001
vt -3.0765 0.3679 5.5976
vt 4.0764 0.3679 5.5976
vt 4.0764 0.4001 5.5976
vt -3.0765 0.4001 5.5976
vt 5.5976 0.3679 4.0764
vt 5.9002 0.3679 4.0764
vt 5.9002 0.4001 4.0764
vt 5.5976 0.4001 4.0764
vt -3.0764 0.3679 5.9002
vt 4.0765 0.3679 5.9002
vt 4.0765 0.4001 5.9002
vt -3.0764 0.4001 5.9002
vt -4.9002 0.3679 -3.0765
vt -4.5976 0.3679 -3.0765
vt -4.5976 0.4001 -3.0765
vt -4.9002 0.4001 -3.0765
vt 4.0765 5.7954 0.3679
vt 4.0765 5.8940 0.3679
vt -3.0764 5.8940 0.3679
vt -3.0764 5.7954 0.3679
vt -3.0765 5.7954 0.6321
vt 4.0764 5.7954 0.6321
vt 4.0764 5.8940 0.6321
vt -3.0765 5.8940 0.6321
vt -3.0765 0.3679 5.7954
vt 4.0764 0.3679 5.7954
vt 4.0764 0.6321 5.7954
vt -3.0765 0.6321 5.7954
vt 5.7954 0.3679 4.0764
vt 5.8940 0.3679 4.0764
vt 5.8940 0.6321 4.0764
vt 5.7954 0.6321 4.0764
vt -3.0764 0.3679 5.8940
vt 4.0765 0.3679 5.8940
vt 4.0765 0.6321 5.8940
vt -3.0764 0.6321 5.8940
vt -4.8940 0.3679 -3.0765
vt -4.7954 0.3679 -3.0765
vt -4.7954 0.6321 -3.0765
vt -4.8940 0.6321 -3.0765
vt 4.0407 -4.8694 0.3679
vt 4.0407 -4.7708 0.3679
vt -3.0407 -4.7708 0.3679
vt -3.0407 -4.8694 0.3679
vt -3.0407 -4.8694 0.6321
vt 4.0407 -4.8694 0.6321
vt 4.0407 -4.7708 0.6321
vt -3.0407 -4.7708 0.6321
vt -3.0407 0.3679 -4.8694
vt 4.0407 0.3679 -4.8694
vt 4.0407 0.6321 -4.8694
vt -3.0407 0.6321 -4.8694
vt -4.8694 0.3679 4.0407
vt -4.7708 0.3679 4.0407
vt -4.7708 0.6321 4.0407
vt -4.8694 0.6321 4.0407
vt -3.0407 0.3679 -4.7708
vt 4.0407 0.3679 -4.7708
vt 4.0407 0.6321 -4.7708
vt -3.0407 0.6321 -4.7708
vt 5.7708 0.3679 -3.0407
vt 5.8694 0.3679 -3.0407
vt 5.8694 0.6321 -3.0407
vt 5.7708 0.6321 -3.0407
vt -2.9695 -4.9002 0.3679
vt -2.9695 5.8900 0.3679
vt -3.0765 5.8900 0.3679
vt -3.0765 -4.9002 0.3679
vt 3.9695 -4.9002 0.6321
vt 4.0765 -4.9002 0.6321
vt 4.0765 5.8900 0.6321
vt 3.9695 5.8900 0.6321
vt 3.9695 0.3679 -4.9002
vt 4.0765 0.3679 -4.9002
vt 4.0765 0.6321 -4.9002
vt 3.9695 0.6321 -4.9002
vt -4.9002 0.3679 4.0765
vt 5.8900 0.3679 4.0765
vt 5.8900 0.6321 4.0765
vt -4.9002 0.6321 4.0765
vt -3.0765 0.3679 5.8900
vt -2.9695 0.3679 5.8900
vt -2.9695 0.6321 5.8900
vt -3.0765 0.6321 5.8900
vt -4.8900 0.3679 3.9695
vt 5.9002 0.3679 3.9695
vt 5.9002 0.6321 3.9695
vt -4.8900 0.6321 3.9695
vt 0.5535 -4.8951 0.3679
vt 0.5535 5.8951 0.3679
vt 0.4465 5.8951 0.3679
vt 0.4465 -4.8951 0.3679
vt 0.4465 -4.8951 0.6321
vt 0.5535 -4.8951 0.6321
vt 0.5535 5.8951 0.6321
vt 0.4465 5.8951 0.6321
vt 0.4465 0.3679 -4.8951
vt 0.5535 0.3679 -4.8951
vt 0.5535 0.6321 -4.8951
vt 0.4465 0.6321 -4.8951
vt -4.8951 0.3679 0.5535
vt 5.8951 0.3679 0.5535
vt 5.8951 0.6321 0.5535
vt -4.8951 0.6321 0.5535
vt 0.4465 0.3679 5.8951
vt 0.5535 0.3679 5.8951
vt 0.5535 0.6321 5.8951
vt 0.4465 0.6321 5.8951
vt -4.8951 0.3679 0.4465
vt 5.8951 0.3679 0.4465
vt 5.8951 0.6321 0.4465
vt -4.8951 0.6321 0.4465
vt -2.7820 -4.8771 0.3679
vt -2.7820 5.8999 0.3679
vt -3.0723 5.8999 0.3679
vt -3.0723 -4.8771 0.3679
vt 3.7820 -4.8771 0.4001
vt 4.0723 -4.8771 0.4001
vt 4.0723 5.8999 0.4001
vt 3.7820 5.8999 0.4001
vt 3.7820 0.3679 -4.8771
vt 4.0723 0.3679 -4.8771
vt 4.0723 0.4001 -4.8771
vt 3.7820 0.4001 -4.8771
vt -4.8771 0.3679 4.0723
vt 5.8999 0.3679 4.0723
vt 5.8999 0.4001 4.0723
vt -4.8771 0.4001 4.0723
vt -3.0723 0.3679 5.8999
vt -2.7820 0.3679 5.8999
vt -2.7820 0.4001 5.8999
vt -3.0723 0.4001 5.8999
vt -4.8999 0.3679 3.7820
vt 5.8771 0.3679 3.7820
vt 5.8771 0.4001 3.7820
vt -4.8999 0.4001 3.7820
# 168 texture coords

o Concrete_Low_Poly
g Concrete_Low_Poly
usemtl Concrete
f 1/1/1 2/2/1 3/3/1 
f 3/3/1 4/4/1 1/1/1 
f 5/5/2 6/6/2 7/7/2 
f 7/7/2 8/8/2 5/5/2 
f 1/9/3 4/10/3 6/11/3 
f 6/11/3 5/12/3 1/9/3 
f 4/13/4 3/14/4 7/15/4 
f 7/15/4 6/16/4 4/13/4 
f 3/17/5 2/18/5 8/19/5 
f 8/19/5 7/20/5 3/17/5 
f 2/21/6 1/22/6 5/23/6 
f 5/23/6 8/24/6 2/21/6 
f 9/25/1 10/26/1 11/27/1 
f 11/27/1 12/28/1 9/25/1 
f 13/29/2 14/30/2 15/31/2 
f 15/31/2 16/32/2 13/29/2 
f 9/33/3 12/34/3 14/35/3 
f 14/35/3 13/36/3 9/33/3 
f 12/37/4 11/38/4 15/39/4 
f 15/39/4 14/40/4 12/37/4 
f 11/41/5 10/42/5 16/43/5 
f 16/43/5 15/44/5 11/41/5 
f 10/45/6 9/46/6 13/47/6 
f 13/47/6 16/48/6 10/45/6 
f 17/49/1 18/50/1 19/51/1 
f 19/51/1 20/52/1 17/49/1 
f 21/53/2 22/54/2 23/55/2 
f 23/55/2 24/56/2 21/53/2 
f 17/57/3 20/58/3 22/59/3 
f 22/59/3 21/60/3 17/57/3 
f 20/61/4 19/62/4 23/63/4 
f 23/63/4 22/64/4 20/61/4 
f 19/65/5 18/66/5 24/67/5 
f 24/67/5 23/68/5 19/65/5 
f 18/69/6 17/70/6 21/71/6 
f 21/71/6 24/72/6 18/69/6 
f 25/73/1 26/74/1 27/75/1 
f 27/75/1 28/76/1 25/73/1 
f 29/77/2 30/78/2 31/79/2 
f 31/79/2 32/80/2 29/77/2 
f 25/81/3 28/82/3 30/83/3 
f 30/83/3 29/84/3 25/81/3 
f 28/85/4 27/86/4 31/87/4 
f 31/87/4 30/88/4 28/85/4 
f 27/89/5 26/90/5 32/91/5 
f 32/91/5 31/92/5 27/89/5 
f 26/93/6 25/94/6 29/95/6 
f 29/95/6 32/96/6 26/93/6 
f 33/97/1 34/98/1 35/99/1 
f 35/99/1 36/100/1 33/97/1 
f 37/101/2 38/102/2 39/103/2 
f 39/103/2 40/104/2 37/101/2 
f 33/105/3 36/106/3 38/107/3 
f 38/107/3 37/108/3 33/105/3 
f 36/109/4 35/110/4 39/111/4 
f 39/111/4 38/112/4 36/109/4 
f 35/113/5 34/114/5 40/115/5 
f 40/115/5 39/116/5 35/113/5 
f 34/117/6 33/118/6 37/119/6 
f 37/119/6 40/120/6 34/117/6 
f 41/121/1 42/122/1 43/123/1 
f 43/123/1 44/124/1 41/121/1 
f 45/125/2 46/126/2 47/127/2 
f 47/127/2 48/128/2 45/125/2 
f 41/129/3 44/130/3 46/131/3 
f 46/131/3 45/132/3 41/129/3 
f 44/133/4 43/134/4 47/135/4 
f 47/135/4 46/136/4 44/133/4 
f 43/137/5 42/138/5 48/139/5 
f 48/139/5 47/140/5 43/137/5 
f 42/141/6 41/142/6 45/143/6 
f 45/143/6 48/144/6 42/141/6 
f 49/145/1 50/146/1 51/147/1 
f 51/147/1 52/148/1 49/145/1 
f 53/149/2 54/150/2 55/151/2 
f 55/151/2 56/152/2 53/149/2 
f 49/153/3 52/154/3 54/155/3 
f 54/155/3 53/156/3 49/153/3 
f 52/157/4 51/158/4 55/159/4 
f 55/159/4 54/160/4 52/157/4 
f 51/161/5 50/162/5 56/163/5 
f 56/163/5 55/164/5 51/161/5 
f 50/165/6 49/166/6 53/167/6 
f 53/167/6 56/168/6 50/165/6 
# 84 faces

