ply
format ascii 1.0
comment VCGLIB generated
element vertex 8
property float x
property float y
property float z
property float nx
property float ny
property float nz
element face 12
property list uchar int vertex_indices
end_header
-1.1422 -0.1542 1.5014 -0.3333333 -0.6666667 0.6666667 
-1.1422 -0.1542 0.9215 -0.8164966 -0.4082483 -0.4082483 
-0.537 -0.1542 0.9215 0.3333333 -0.6666667 -0.6666667 
-0.537 -0.1542 1.5014 0.8164966 -0.4082483 0.4082483 
-1.1422 0.1389 1.5014 -0.6666667 0.6666667 0.3333333 
-0.537 0.1389 1.5014 0.4082483 0.4082483 0.8164966 
-0.537 0.1389 0.9215 0.6666667 0.6666667 -0.3333333 
-1.1422 0.1389 0.9215 -0.4082483 0.4082483 -0.8164966 
3 0 1 2 
3 2 3 0 
3 4 5 6 
3 6 7 4 
3 0 3 5 
3 5 4 0 
3 3 2 6 
3 6 5 3 
3 2 1 7 
3 7 6 2 
3 1 0 4 
3 4 7 1 
