ply
format ascii 1.0
comment VCGLIB generated
element vertex 225
property float x
property float y
property float z
property float nx
property float ny
property float nz
property uchar red
property uchar green
property uchar blue
property uchar alpha
element face 392
property list uchar int vertex_indices
end_header
-70 0 60 0 1 0 192 192 192 255 
-70 0 70 0 1 0 192 192 192 255 
-60 0 60 0 1 0 192 192 192 255 
-60 0 70 0 1 0 192 192 192 255 
-50 0 60 0 1 0 192 192 192 255 
-50 0 70 0 1 0 192 192 192 255 
-40 0 60 0 1 0 192 192 192 255 
-40 0 70 0 1 0 192 192 192 255 
-30 0 60 0 1 0 192 192 192 255 
-30 0 70 0 1 0 192 192 192 255 
-20 0 60 0 1 0 192 192 192 255 
-20 0 70 0 1 0 192 192 192 255 
-10 0 60 0 1 0 192 192 192 255 
-10 0 70 0 1 0 192 192 192 255 
0 0 60 0 1 0 192 192 192 255 
0 0 70 0 1 0 192 192 192 255 
10 0 60 0 1 0 192 192 192 255 
10 0 70 0 1 0 192 192 192 255 
20 0 60 0 1 0 192 192 192 255 
20 0 70 0 1 0 192 192 192 255 
30 0 60 0 1 0 192 192 192 255 
30 0 70 0 1 0 192 192 192 255 
40 0 60 0 1 0 192 192 192 255 
40 0 70 0 1 0 192 192 192 255 
50 0 60 0 1 0 192 192 192 255 
50 0 70 0 1 0 192 192 192 255 
60 0 60 0 1 0 192 192 192 255 
60 0 70 0 1 0 192 192 192 255 
70 0 60 0 1 0 192 192 192 255 
70 0 70 0 1 0 192 192 192 255 
-70 0 50 0 1 0 192 192 192 255 
-60 0 50 0 1 0 192 192 192 255 
-50 0 50 0 1 0 192 192 192 255 
-40 0 50 0 1 0 192 192 192 255 
-30 0 50 0 1 0 192 192 192 255 
-20 0 50 0 1 0 192 192 192 255 
-10 0 50 0 1 0 192 192 192 255 
0 0 50 0 1 0 192 192 192 255 
10 0 50 0 1 0 192 192 192 255 
20 0 50 0 1 0 192 192 192 255 
30 0 50 0 1 0 192 192 192 255 
40 0 50 0 1 0 192 192 192 255 
50 0 50 0 1 0 192 192 192 255 
60 0 50 0 1 0 192 192 192 255 
70 0 50 0 1 0 192 192 192 255 
-70 0 40 0 1 0 192 192 192 255 
-60 0 40 0 1 0 192 192 192 255 
-50 0 40 0 1 0 192 192 192 255 
-40 0 40 0 1 0 192 192 192 255 
-30 0 40 0 1 0 192 192 192 255 
-20 0 40 0 1 0 192 192 192 255 
-10 0 40 0 1 0 192 192 192 255 
0 0 40 0 1 0 192 192 192 255 
10 0 40 0 1 0 192 192 192 255 
20 0 40 0 1 0 192 192 192 255 
30 0 40 0 1 0 192 192 192 255 
40 0 40 0 1 0 192 192 192 255 
50 0 40 0 1 0 192 192 192 255 
60 0 40 0 1 0 192 192 192 255 
70 0 40 0 1 0 192 192 192 255 
-70 0 30 0 1 0 192 192 192 255 
-60 0 30 0 1 0 192 192 192 255 
-50 0 30 0 1 0 192 192 192 255 
-40 0 30 0 1 0 192 192 192 255 
-30 0 30 0 1 0 192 192 192 255 
-20 0 30 0 1 0 192 192 192 255 
-10 0 30 0 1 0 192 192 192 255 
0 0 30 0 1 0 192 192 192 255 
10 0 30 0 1 0 192 192 192 255 
20 0 30 0 1 0 192 192 192 255 
30 0 30 0 1 0 192 192 192 255 
40 0 30 0 1 0 192 192 192 255 
50 0 30 0 1 0 192 192 192 255 
60 0 30 0 1 0 192 192 192 255 
70 0 30 0 1 0 192 192 192 255 
-70 0 20 0 1 0 192 192 192 255 
-60 0 20 0 1 0 192 192 192 255 
-50 0 20 0 1 0 192 192 192 255 
-40 0 20 0 1 0 192 192 192 255 
-30 0 20 0 1 0 192 192 192 255 
-20 0 20 0 1 0 192 192 192 255 
-10 0 20 0 1 0 192 192 192 255 
0 0 20 0 1 0 192 192 192 255 
10 0 20 0 1 0 192 192 192 255 
20 0 20 0 1 0 192 192 192 255 
30 0 20 0 1 0 192 192 192 255 
40 0 20 0 1 0 192 192 192 255 
50 0 20 0 1 0 192 192 192 255 
60 0 20 0 1 0 192 192 192 255 
70 0 20 0 1 0 192 192 192 255 
-70 0 10 0 1 0 192 192 192 255 
-60 0 10 0 1 0 192 192 192 255 
-50 0 10 0 1 0 192 192 192 255 
-40 0 10 0 1 0 192 192 192 255 
-30 0 10 0 1 0 192 192 192 255 
-20 0 10 0 1 0 192 192 192 255 
-10 0 10 0 1 0 192 192 192 255 
0 0 10 0 1 0 192 192 192 255 
10 0 10 0 1 0 192 192 192 255 
20 0 10 0 1 0 192 192 192 255 
30 0 10 0 1 0 192 192 192 255 
40 0 10 0 1 0 192 192 192 255 
50 0 10 0 1 0 192 192 192 255 
60 0 10 0 1 0 192 192 192 255 
70 0 10 0 1 0 192 192 192 255 
-70 0 -0 0 1 0 192 192 192 255 
-60 0 -0 0 1 0 192 192 192 255 
-50 0 -0 0 1 0 192 192 192 255 
-40 0 -0 0 1 0 192 192 192 255 
-30 0 -0 0 1 0 192 192 192 255 
-20 0 -0 0 1 0 192 192 192 255 
-10 0 -0 0 1 0 192 192 192 255 
0 0 -0 0 1 0 192 192 192 255 
10 0 -0 0 1 0 192 192 192 255 
20 0 -0 0 1 0 192 192 192 255 
30 0 -0 0 1 0 192 192 192 255 
40 0 -0 0 1 0 192 192 192 255 
50 0 -0 0 1 0 192 192 192 255 
60 0 -0 0 1 0 192 192 192 255 
70 0 -0 0 1 0 192 192 192 255 
-70 0 -10 0 1 0 192 192 192 255 
-60 0 -10 0 1 0 192 192 192 255 
-50 0 -10 0 1 0 192 192 192 255 
-40 0 -10 0 1 0 192 192 192 255 
-30 0 -10 0 1 0 192 192 192 255 
-20 0 -10 0 1 0 192 192 192 255 
-10 0 -10 0 1 0 192 192 192 255 
0 0 -10 0 1 0 192 192 192 255 
10 0 -10 0 1 0 192 192 192 255 
20 0 -10 0 1 0 192 192 192 255 
30 0 -10 0 1 0 192 192 192 255 
40 0 -10 0 1 0 192 192 192 255 
50 0 -10 0 1 0 192 192 192 255 
60 0 -10 0 1 0 192 192 192 255 
70 0 -10 0 1 0 192 192 192 255 
-70 0 -20 0 1 0 192 192 192 255 
-60 0 -20 0 1 0 192 192 192 255 
-50 0 -20 0 1 0 192 192 192 255 
-40 0 -20 0 1 0 192 192 192 255 
-30 0 -20 0 1 0 192 192 192 255 
-20 0 -20 0 1 0 192 192 192 255 
-10 0 -20 0 1 0 192 192 192 255 
0 0 -20 0 1 0 192 192 192 255 
10 0 -20 0 1 0 192 192 192 255 
20 0 -20 0 1 0 192 192 192 255 
30 0 -20 0 1 0 192 192 192 255 
40 0 -20 0 1 0 192 192 192 255 
50 0 -20 0 1 0 192 192 192 255 
60 0 -20 0 1 0 192 192 192 255 
70 0 -20 0 1 0 192 192 192 255 
-70 0 -30 0 1 0 192 192 192 255 
-60 0 -30 0 1 0 192 192 192 255 
-50 0 -30 0 1 0 192 192 192 255 
-40 0 -30 0 1 0 192 192 192 255 
-30 0 -30 0 1 0 192 192 192 255 
-20 0 -30 0 1 0 192 192 192 255 
-10 0 -30 0 1 0 192 192 192 255 
0 0 -30 0 1 0 192 192 192 255 
10 0 -30 0 1 0 192 192 192 255 
20 0 -30 0 1 0 192 192 192 255 
30 0 -30 0 1 0 192 192 192 255 
40 0 -30 0 1 0 192 192 192 255 
50 0 -30 0 1 0 192 192 192 255 
60 0 -30 0 1 0 192 192 192 255 
70 0 -30 0 1 0 192 192 192 255 
-70 0 -40 0 1 0 192 192 192 255 
-60 0 -40 0 1 0 192 192 192 255 
-50 0 -40 0 1 0 192 192 192 255 
-40 0 -40 0 1 0 192 192 192 255 
-30 0 -40 0 1 0 192 192 192 255 
-20 0 -40 0 1 0 192 192 192 255 
-10 0 -40 0 1 0 192 192 192 255 
0 0 -40 0 1 0 192 192 192 255 
10 0 -40 0 1 0 192 192 192 255 
20 0 -40 0 1 0 192 192 192 255 
30 0 -40 0 1 0 192 192 192 255 
40 0 -40 0 1 0 192 192 192 255 
50 0 -40 0 1 0 192 192 192 255 
60 0 -40 0 1 0 192 192 192 255 
70 0 -40 0 1 0 192 192 192 255 
-70 0 -50 0 1 0 192 192 192 255 
-60 0 -50 0 1 0 192 192 192 255 
-50 0 -50 0 1 0 192 192 192 255 
-40 0 -50 0 1 0 192 192 192 255 
-30 0 -50 0 1 0 192 192 192 255 
-20 0 -50 0 1 0 192 192 192 255 
-10 0 -50 0 1 0 192 192 192 255 
0 0 -50 0 1 0 192 192 192 255 
10 0 -50 0 1 0 192 192 192 255 
20 0 -50 0 1 0 192 192 192 255 
30 0 -50 0 1 0 192 192 192 255 
40 0 -50 0 1 0 192 192 192 255 
50 0 -50 0 1 0 192 192 192 255 
60 0 -50 0 1 0 192 192 192 255 
70 0 -50 0 1 0 192 192 192 255 
-70 0 -60 0 1 0 192 192 192 255 
-60 0 -60 0 1 0 192 192 192 255 
-50 0 -60 0 1 0 192 192 192 255 
-40 0 -60 0 1 0 192 192 192 255 
-30 0 -60 0 1 0 192 192 192 255 
-20 0 -60 0 1 0 192 192 192 255 
-10 0 -60 0 1 0 192 192 192 255 
0 0 -60 0 1 0 192 192 192 255 
10 0 -60 0 1 0 192 192 192 255 
20 0 -60 0 1 0 192 192 192 255 
30 0 -60 0 1 0 192 192 192 255 
40 0 -60 0 1 0 192 192 192 255 
50 0 -60 0 1 0 192 192 192 255 
60 0 -60 0 1 0 192 192 192 255 
70 0 -60 0 1 0 192 192 192 255 
-70 0 -70 0 1 0 192 192 192 255 
-60 0 -70 0 1 0 192 192 192 255 
-50 0 -70 0 1 0 192 192 192 255 
-40 0 -70 0 1 0 192 192 192 255 
-30 0 -70 0 1 0 192 192 192 255 
-20 0 -70 0 1 0 192 192 192 255 
-10 0 -70 0 1 0 192 192 192 255 
0 0 -70 0 1 0 192 192 192 255 
10 0 -70 0 1 0 192 192 192 255 
20 0 -70 0 1 0 192 192 192 255 
30 0 -70 0 1 0 192 192 192 255 
40 0 -70 0 1 0 192 192 192 255 
50 0 -70 0 1 0 192 192 192 255 
60 0 -70 0 1 0 192 192 192 255 
70 0 -70 0 1 0 192 192 192 255 
3 0 1 2 
3 3 2 1 
3 2 3 4 
3 5 4 3 
3 4 5 6 
3 7 6 5 
3 6 7 8 
3 9 8 7 
3 8 9 10 
3 11 10 9 
3 10 11 12 
3 13 12 11 
3 12 13 14 
3 15 14 13 
3 14 15 16 
3 17 16 15 
3 16 17 18 
3 19 18 17 
3 18 19 20 
3 21 20 19 
3 20 21 22 
3 23 22 21 
3 22 23 24 
3 25 24 23 
3 24 25 26 
3 27 26 25 
3 26 27 28 
3 29 28 27 
3 30 0 31 
3 2 31 0 
3 31 2 32 
3 4 32 2 
3 32 4 33 
3 6 33 4 
3 33 6 34 
3 8 34 6 
3 34 8 35 
3 10 35 8 
3 35 10 36 
3 12 36 10 
3 36 12 37 
3 14 37 12 
3 37 14 38 
3 16 38 14 
3 38 16 39 
3 18 39 16 
3 39 18 40 
3 20 40 18 
3 40 20 41 
3 22 41 20 
3 41 22 42 
3 24 42 22 
3 42 24 43 
3 26 43 24 
3 43 26 44 
3 28 44 26 
3 45 30 46 
3 31 46 30 
3 46 31 47 
3 32 47 31 
3 47 32 48 
3 33 48 32 
3 48 33 49 
3 34 49 33 
3 49 34 50 
3 35 50 34 
3 50 35 51 
3 36 51 35 
3 51 36 52 
3 37 52 36 
3 52 37 53 
3 38 53 37 
3 53 38 54 
3 39 54 38 
3 54 39 55 
3 40 55 39 
3 55 40 56 
3 41 56 40 
3 56 41 57 
3 42 57 41 
3 57 42 58 
3 43 58 42 
3 58 43 59 
3 44 59 43 
3 60 45 61 
3 46 61 45 
3 61 46 62 
3 47 62 46 
3 62 47 63 
3 48 63 47 
3 63 48 64 
3 49 64 48 
3 64 49 65 
3 50 65 49 
3 65 50 66 
3 51 66 50 
3 66 51 67 
3 52 67 51 
3 67 52 68 
3 53 68 52 
3 68 53 69 
3 54 69 53 
3 69 54 70 
3 55 70 54 
3 70 55 71 
3 56 71 55 
3 71 56 72 
3 57 72 56 
3 72 57 73 
3 58 73 57 
3 73 58 74 
3 59 74 58 
3 75 60 76 
3 61 76 60 
3 76 61 77 
3 62 77 61 
3 77 62 78 
3 63 78 62 
3 78 63 79 
3 64 79 63 
3 79 64 80 
3 65 80 64 
3 80 65 81 
3 66 81 65 
3 81 66 82 
3 67 82 66 
3 82 67 83 
3 68 83 67 
3 83 68 84 
3 69 84 68 
3 84 69 85 
3 70 85 69 
3 85 70 86 
3 71 86 70 
3 86 71 87 
3 72 87 71 
3 87 72 88 
3 73 88 72 
3 88 73 89 
3 74 89 73 
3 90 75 91 
3 76 91 75 
3 91 76 92 
3 77 92 76 
3 92 77 93 
3 78 93 77 
3 93 78 94 
3 79 94 78 
3 94 79 95 
3 80 95 79 
3 95 80 96 
3 81 96 80 
3 96 81 97 
3 82 97 81 
3 97 82 98 
3 83 98 82 
3 98 83 99 
3 84 99 83 
3 99 84 100 
3 85 100 84 
3 100 85 101 
3 86 101 85 
3 101 86 102 
3 87 102 86 
3 102 87 103 
3 88 103 87 
3 103 88 104 
3 89 104 88 
3 105 90 106 
3 91 106 90 
3 106 91 107 
3 92 107 91 
3 107 92 108 
3 93 108 92 
3 108 93 109 
3 94 109 93 
3 109 94 110 
3 95 110 94 
3 110 95 111 
3 96 111 95 
3 111 96 112 
3 97 112 96 
3 112 97 113 
3 98 113 97 
3 113 98 114 
3 99 114 98 
3 114 99 115 
3 100 115 99 
3 115 100 116 
3 101 116 100 
3 116 101 117 
3 102 117 101 
3 117 102 118 
3 103 118 102 
3 118 103 119 
3 104 119 103 
3 120 105 121 
3 106 121 105 
3 121 106 122 
3 107 122 106 
3 122 107 123 
3 108 123 107 
3 123 108 124 
3 109 124 108 
3 124 109 125 
3 110 125 109 
3 125 110 126 
3 111 126 110 
3 126 111 127 
3 112 127 111 
3 127 112 128 
3 113 128 112 
3 128 113 129 
3 114 129 113 
3 129 114 130 
3 115 130 114 
3 130 115 131 
3 116 131 115 
3 131 116 132 
3 117 132 116 
3 132 117 133 
3 118 133 117 
3 133 118 134 
3 119 134 118 
3 135 120 136 
3 121 136 120 
3 136 121 137 
3 122 137 121 
3 137 122 138 
3 123 138 122 
3 138 123 139 
3 124 139 123 
3 139 124 140 
3 125 140 124 
3 140 125 141 
3 126 141 125 
3 141 126 142 
3 127 142 126 
3 142 127 143 
3 128 143 127 
3 143 128 144 
3 129 144 128 
3 144 129 145 
3 130 145 129 
3 145 130 146 
3 131 146 130 
3 146 131 147 
3 132 147 131 
3 147 132 148 
3 133 148 132 
3 148 133 149 
3 134 149 133 
3 150 135 151 
3 136 151 135 
3 151 136 152 
3 137 152 136 
3 152 137 153 
3 138 153 137 
3 153 138 154 
3 139 154 138 
3 154 139 155 
3 140 155 139 
3 155 140 156 
3 141 156 140 
3 156 141 157 
3 142 157 141 
3 157 142 158 
3 143 158 142 
3 158 143 159 
3 144 159 143 
3 159 144 160 
3 145 160 144 
3 160 145 161 
3 146 161 145 
3 161 146 162 
3 147 162 146 
3 162 147 163 
3 148 163 147 
3 163 148 164 
3 149 164 148 
3 165 150 166 
3 151 166 150 
3 166 151 167 
3 152 167 151 
3 167 152 168 
3 153 168 152 
3 168 153 169 
3 154 169 153 
3 169 154 170 
3 155 170 154 
3 170 155 171 
3 156 171 155 
3 171 156 172 
3 157 172 156 
3 172 157 173 
3 158 173 157 
3 173 158 174 
3 159 174 158 
3 174 159 175 
3 160 175 159 
3 175 160 176 
3 161 176 160 
3 176 161 177 
3 162 177 161 
3 177 162 178 
3 163 178 162 
3 178 163 179 
3 164 179 163 
3 180 165 181 
3 166 181 165 
3 181 166 182 
3 167 182 166 
3 182 167 183 
3 168 183 167 
3 183 168 184 
3 169 184 168 
3 184 169 185 
3 170 185 169 
3 185 170 186 
3 171 186 170 
3 186 171 187 
3 172 187 171 
3 187 172 188 
3 173 188 172 
3 188 173 189 
3 174 189 173 
3 189 174 190 
3 175 190 174 
3 190 175 191 
3 176 191 175 
3 191 176 192 
3 177 192 176 
3 192 177 193 
3 178 193 177 
3 193 178 194 
3 179 194 178 
3 195 180 196 
3 181 196 180 
3 196 181 197 
3 182 197 181 
3 197 182 198 
3 183 198 182 
3 198 183 199 
3 184 199 183 
3 199 184 200 
3 185 200 184 
3 200 185 201 
3 186 201 185 
3 201 186 202 
3 187 202 186 
3 202 187 203 
3 188 203 187 
3 203 188 204 
3 189 204 188 
3 204 189 205 
3 190 205 189 
3 205 190 206 
3 191 206 190 
3 206 191 207 
3 192 207 191 
3 207 192 208 
3 193 208 192 
3 208 193 209 
3 194 209 193 
3 210 195 211 
3 196 211 195 
3 211 196 212 
3 197 212 196 
3 212 197 213 
3 198 213 197 
3 213 198 214 
3 199 214 198 
3 214 199 215 
3 200 215 199 
3 215 200 216 
3 201 216 200 
3 216 201 217 
3 202 217 201 
3 217 202 218 
3 203 218 202 
3 218 203 219 
3 204 219 203 
3 219 204 220 
3 205 220 204 
3 220 205 221 
3 206 221 205 
3 221 206 222 
3 207 222 206 
3 222 207 223 
3 208 223 207 
3 223 208 224 
3 209 224 208 
