ply
format ascii 1.0
comment VCGLIB generated
element vertex 146
property float x
property float y
property float z
property float nx
property float ny
property float nz
property uchar red
property uchar green
property uchar blue
property uchar alpha
element face 288
property list uchar int vertex_indices
end_header
0.3014 0.2682 1.1498 3.017321 -5.239748 -0.04911261 248 82 0 255 
0.3373 0.3078 2.292 2.904706 -4.96433 1.005473 230 76 0 255 
0.0247 0.2244 2.2986 0.003065854 -5.743084 1.075244 248 82 0 255 
0.018 0.1924 1.1557 0.00473221 -6.047757 0.04603896 237 78 0 255 
-0.473 0.475 1.1334 -5.235549 -3.024344 -0.113878 248 82 0 255 
-0.5166 0.5359 2.274 -5.060833 -2.655134 0.8376675 248 82 0 255 
-0.5788 0.8475 2.2494 -5.997673 -0.01947595 0.5340632 248 82 0 255 
-0.549 0.7576 1.1111 -6.038172 -0.04363493 -0.3308585 248 82 0 255 
0.3014 1.2471 1.0725 3.017046 5.166726 -0.8706157 248 82 0 255 
0.3373 1.3871 2.2068 2.906001 5.060622 0.2133329 248 82 0 255 
0.5661 1.159 2.2248 5.029002 2.93999 0.3745588 248 82 0 255 
0.509 1.0402 1.0888 5.188939 3.075628 -0.7154096 248 82 0 255 
0.0247 1.4706 2.2002 0.002776429 5.840137 0.1606884 248 82 0 255 
0.018 1.3228 1.0665 0.004579619 5.980584 -0.9036226 248 82 0 255 
-0.2655 1.2471 1.0725 -3.015581 5.182878 -0.80912 248 82 0 255 
-0.2878 1.3871 2.2068 -2.903916 5.067741 0.2304206 248 82 0 255 
0.509 0.475 1.1334 5.18448 -3.161807 -0.2381575 248 82 0 255 
0.5661 0.5359 2.274 5.026873 -2.853673 0.8458488 230 76 0 255 
-0.2655 0.2682 1.1498 -3.016082 -5.245927 0.01410352 248 82 0 255 
-0.2878 0.3078 2.292 -2.903056 -4.968495 1.023413 248 82 0 255 
-0.473 1.0402 1.0888 -5.230575 2.983687 -0.612361 248 82 0 255 
-0.5166 1.159 2.2248 -5.059291 2.81585 0.3851008 248 82 0 255 
0.5974 0.7576 1.1111 5.946299 -0.02635133 -0.4731147 248 82 0 255 
0.6498 0.8475 2.2494 5.809474 0.05893327 0.6185549 230 76 0 255 
0.0247 1.4156 2.4859 0.01187268 5.333107 2.224188 248 82 0 255 
0.2986 1.3425 2.4916 2.561029 4.608403 2.317996 248 82 0 255 
-0.4496 1.1426 2.5074 -4.49856 2.796319 2.371252 248 82 0 255 
-0.2491 1.3425 2.4916 -2.580959 4.677593 2.242416 248 82 0 255 
0.5725 0.8696 2.529 5.098622 0.2289179 2.663691 230 76 0 255 
0.4991 0.5965 2.5505 4.385704 -2.332715 2.891157 230 76 0 255 
0.0247 0.3235 2.5721 0.0122509 -4.891759 3.051705 248 82 0 255 
-0.2491 0.3967 2.5663 -2.568204 -4.250486 2.966387 248 82 0 255 
-0.523 0.8696 2.529 -5.21678 0.1302832 2.400831 248 82 0 255 
0.4991 1.1426 2.5074 4.392233 2.730296 2.497774 248 82 0 255 
0.2986 0.3967 2.5663 2.547832 -4.168883 3.03003 248 82 0 255 
-0.4496 0.5965 2.5505 -4.513443 -2.342515 2.730613 248 82 0 255 
-0.1626 0.562 2.7598 -1.709038 -2.891025 4.830836 248 82 0 255 
-0.2998 0.6993 2.7547 -3.178183 -1.577363 4.685521 248 82 0 255 
0.0247 1.259 2.697 0.1713967 3.998165 4.380236 85 85 0 255 
0.2121 1.2083 2.6932 1.92346 3.38189 4.500379 85 85 0 255 
-0.2998 1.0732 2.7251 -3.200176 2.284297 4.392795 91 84 0 255 
-0.1626 1.2096 2.7087 -1.729439 3.626145 4.338259 151 83 0 255 
0.4114 0.8839 2.711 3.477823 0.3993152 4.677784 248 82 0 255 
0.3493 0.6971 2.7278 3.020543 -1.38012 4.953646 248 82 0 255 
0.0247 0.5113 2.756 0.1695777 -3.240352 4.925187 85 85 0 255 
-0.35 0.8864 2.742 -3.743375 0.3467019 4.52379 248 82 0 255 
0.3493 1.071 2.6983 3.088287 2.111502 4.653945 248 82 0 255 
0.2121 0.5607 2.7443 1.902115 -2.625476 4.950448 248 82 0 255 
-0.0939 0.685 2.8124 -0.5472353 -1.253379 5.959875 85 85 0 255 
-0.1808 0.7725 2.8129 -1.354272 -0.5813558 5.904785 85 85 0 255 
0.0247 1.1273 2.7672 0.4454981 2.234954 5.741254 85 85 0 255 
0.1434 1.0947 2.7596 1.266601 1.864189 5.786695 85 85 0 255 
-0.1808 1.01 2.7942 -1.339682 1.469885 5.762597 152 83 0 255 
-0.0939 1.0963 2.7799 -0.5284212 2.12489 5.730169 85 85 0 255 
0.2621 0.8882 2.7656 1.869502 0.4239857 5.940335 85 85 0 255 
0.2303 0.7697 2.7777 1.789718 -0.320737 5.950457 85 85 0 255 
0.0247 0.6524 2.8047 0.4419196 -1.373876 5.985631 85 85 0 255 
-0.2126 0.8914 2.8063 -1.659319 0.4460428 5.829268 85 85 0 255 
0.2303 1.0072 2.759 1.741794 1.226737 5.857324 85 85 0 255 
0.1434 0.6834 2.792 1.280985 -0.9943647 5.980081 85 85 0 255 
0.1061 0.844 2.8034 1.148587 0.1278676 6.165337 85 85 0 255 
0.0717 0.8098 2.809 0.885781 -0.1359591 6.208874 85 85 0 255 
-0.0222 0.8104 2.8171 0.1746391 -0.1345953 6.268439 114 84 0 255 
-0.0566 0.8451 2.8173 -0.09571394 0.1306192 6.270624 99 84 0 255 
0.0247 0.9854 2.7992 0.5303507 1.207498 6.132774 118 84 0 255 
0.0717 0.9725 2.7962 0.889141 1.103455 6.110589 85 85 0 255 
-0.0566 0.939 2.8099 -0.09264996 0.8561798 6.21312 85 85 0 255 
-0.0222 0.9732 2.8042 0.1738267 1.117181 6.170127 85 85 0 255 
0.1186 0.8908 2.7986 1.24489 0.4884754 6.128807 134 83 0 255 
0.0247 0.7975 2.814 0.5347626 -0.2313403 6.246103 102 84 0 255 
-0.0691 0.8921 2.8147 -0.1915639 0.4922063 6.250093 85 85 0 255 
0.1061 0.9379 2.7959 1.151307 0.8393735 6.1096 85 85 0 255 
0.0247 0.892 2.8139 0.5316554 0.4894651 6.202367 93 84 0 255 
-0.0065 0.2136 -0.4545 -0.01351079 -6.072892 -0.06375927 248 82 0 255 
0.2031 0.2696 -0.4589 3.017316 -5.276742 -0.1328234 248 82 0 255 
-0.4256 0.6314 -0.4875 -6.036715 -0.04168442 -0.5276079 248 82 0 255 
-0.3695 0.4225 -0.471 -5.232506 -3.045196 -0.2920582 248 82 0 255 
0.3565 0.8403 -0.504 5.207556 3.102728 -0.8013877 248 82 0 255 
0.2031 0.9932 -0.5161 3.017401 5.190408 -0.9593065 248 82 0 255 
-0.0065 1.0492 -0.5205 -0.01359653 5.987644 -1.016095 248 82 0 255 
-0.2161 0.9932 -0.5161 -3.031589 5.169115 -0.9452492 248 82 0 255 
0.3565 0.4225 -0.471 5.207553 -3.190037 -0.3046846 248 82 0 255 
-0.2161 0.2696 -0.4589 -3.031661 -5.253414 -0.1222934 248 82 0 255 
-0.3695 0.8403 -0.504 -5.232561 2.961556 -0.7664266 248 82 0 255 
0.4218 0.6314 -0.4875 5.992507 -0.04409372 -0.5580072 248 82 0 255 
-0.1462 0.2648 -1.7246 -3.007613 -5.254031 -0.2207969 248 82 0 255 
0.0086 0.2235 -1.7213 0.006587297 -6.053935 -0.1389211 248 82 0 255 
-0.2595 0.6863 -1.7579 -5.217489 2.955766 -0.8828956 248 82 0 255 
-0.301 0.5321 -1.7457 -6.02601 -0.05095118 -0.650584 248 82 0 255 
0.3249 0.5321 -1.7457 5.946142 -0.04547444 -0.5815094 248 82 0 255 
0.2766 0.6863 -1.7579 5.182371 3.074703 -0.8307251 248 82 0 255 
0.1633 0.2648 -1.7246 3.015691 -5.243381 -0.1841712 248 82 0 255 
-0.2595 0.3778 -1.7335 -5.217673 -3.057225 -0.4081313 248 82 0 255 
0.1633 0.7993 -1.7668 3.015823 5.149542 -1.004651 248 82 0 255 
0.0086 0.8406 -1.7701 0.006484926 5.957035 -1.087289 248 82 0 255 
-0.1462 0.7993 -1.7668 -3.00766 5.15427 -1.04274 248 82 0 255 
0.2766 0.3778 -1.7335 5.182578 -3.166414 -0.3378834 248 82 0 255 
0.2119 0.3651 -2.3697 5.172486 -3.194214 -0.4894603 248 82 0 255 
0.2485 0.4821 -2.3789 5.958165 -0.05533406 -0.7170013 248 82 0 255 
-0.1086 0.2795 -2.3629 -2.989551 -5.192009 -0.58272 248 82 0 255 
0.0087 0.2482 -2.3604 -0.03043574 -6.023466 -0.4258546 248 82 0 255 
-0.1945 0.599 -2.3881 -5.127301 2.851436 -1.28182 248 82 0 255 
-0.2259 0.4821 -2.3789 -5.903523 -0.08359522 -1.072779 248 82 0 255 
0.2119 0.599 -2.3881 5.172688 3.077935 -0.9849885 248 82 0 255 
0.126 0.2795 -2.3629 2.976749 -5.258858 -0.3921362 248 82 0 255 
-0.1945 0.3651 -2.3697 -5.127207 -3.016813 -0.8182575 248 82 0 255 
0.126 0.6846 -2.3949 2.976687 5.132124 -1.212882 248 82 0 255 
0.0087 0.7159 -2.3974 -0.02999242 5.881891 -1.365975 248 82 0 255 
-0.1086 0.6846 -2.3949 -2.990282 5.036032 -1.389741 248 82 0 255 
-0.0724 0.6306 -2.6182 -2.627265 4.449246 -2.635361 248 82 0 255 
-0.1429 0.5603 -2.6126 -4.63315 2.518289 -2.519348 248 82 0 255 
0.191 0.3681 -2.5975 4.515713 -2.847611 -1.923902 248 82 0 255 
0.221 0.4642 -2.605 5.08746 -0.1576081 -2.101384 248 82 0 255 
-0.0724 0.2978 -2.5919 -2.64919 -4.83088 -1.866917 248 82 0 255 
0.024 0.272 -2.5899 0.05337697 -5.484293 -1.756236 248 82 0 255 
-0.1688 0.4642 -2.605 -5.380584 -0.1774799 -2.313769 248 82 0 255 
0.191 0.5603 -2.6126 4.488536 2.502097 -2.371768 248 82 0 255 
0.1204 0.2978 -2.5919 2.683577 -4.698187 -1.774096 248 82 0 255 
-0.1429 0.3681 -2.5975 -4.650525 -2.882638 -2.075229 248 82 0 255 
0.1204 0.6306 -2.6182 2.658195 4.32327 -2.527817 248 82 0 255 
0.024 0.6564 -2.6202 0.05644679 5.095486 -2.634891 248 82 0 255 
0.0738 0.5414 -2.7302 2.804878 3.822559 -3.937002 248 82 0 255 
0.0242 0.5543 -2.7386 0.4249766 4.542777 -4.052682 248 82 0 255 
-0.0254 0.5403 -2.7449 -2.03322 3.941234 -4.092661 248 82 0 255 
-0.0617 0.5033 -2.7474 -3.850118 2.161999 -4.032865 248 82 0 255 
0.1101 0.4053 -2.7141 4.413667 -2.653975 -3.485015 248 82 0 255 
0.1255 0.4555 -2.7157 4.971047 -0.2596112 -3.667034 248 82 0 255 
-0.0254 0.3671 -2.7312 -2.019179 -4.509462 -3.51017 248 82 0 255 
0.0242 0.3543 -2.7228 0.4397693 -5.081801 -3.40409 248 82 0 255 
-0.075 0.4531 -2.7454 -4.516911 -0.2968314 -3.885797 248 82 0 255 
0.1101 0.5053 -2.7219 4.428154 2.130027 -3.796665 248 82 0 255 
0.0738 0.3683 -2.7165 2.801585 -4.341864 -3.398201 248 82 0 255 
-0.0617 0.4033 -2.7395 -3.844901 -2.74722 -3.691268 248 82 0 255 
-0.0002 0.4276 -2.8029 -3.489258 -2.719739 -4.294857 248 82 0 255 
0.015 0.4124 -2.7994 -1.771809 -4.443913 -3.886155 248 82 0 255 
0.0565 0.4853 -2.799 2.937223 3.864801 -3.79673 248 82 0 255 
0.0357 0.4907 -2.8025 0.5702775 4.452925 -4.219853 248 82 0 255 
0.015 0.4848 -2.8051 -1.775122 3.782008 -4.538817 248 82 0 255 
-0.0002 0.4694 -2.8062 -3.478387 2.021801 -4.66777 248 82 0 255 
0.0717 0.4284 -2.7923 4.649487 -2.727856 -3.013742 248 82 0 255 
0.0781 0.4494 -2.7929 5.259997 -0.2428485 -3.128509 248 82 0 255 
0.0357 0.4071 -2.7959 0.5742807 -5.068617 -3.463472 248 82 0 255 
-0.0057 0.4484 -2.8054 -4.112999 -0.3633605 -4.58076 248 82 0 255 
0.0717 0.4702 -2.7956 4.646969 2.22367 -3.403902 248 82 0 255 
0.0565 0.4129 -2.7933 2.93169 -4.414523 -3.139444 248 82 0 255 
0.0441 0.4447 -2.8515 0.3563754 -0.18403 -2.315529 248 82 0 255 
3 0 1 2 
3 0 2 3 
3 4 5 6 
3 4 6 7 
3 8 9 10 
3 8 10 11 
3 12 13 14 
3 12 14 15 
3 16 17 1 
3 16 1 0 
3 18 19 5 
3 18 5 4 
3 13 12 9 
3 13 9 8 
3 20 21 15 
3 20 15 14 
3 22 23 17 
3 22 17 16 
3 3 2 19 
3 3 19 18 
3 7 6 21 
3 7 21 20 
3 11 10 23 
3 11 23 22 
3 9 12 24 
3 9 24 25 
3 15 21 26 
3 15 26 27 
3 17 23 28 
3 17 28 29 
3 19 2 30 
3 19 30 31 
3 21 6 32 
3 21 32 26 
3 23 10 33 
3 23 33 28 
3 2 1 34 
3 2 34 30 
3 6 5 35 
3 6 35 32 
3 10 9 25 
3 10 25 33 
3 12 15 27 
3 12 27 24 
3 1 17 29 
3 1 29 34 
3 5 19 31 
3 5 31 35 
3 35 31 36 
3 35 36 37 
3 25 24 38 
3 25 38 39 
3 27 26 40 
3 27 40 41 
3 29 28 42 
3 29 42 43 
3 31 30 44 
3 31 44 36 
3 26 32 45 
3 26 45 40 
3 28 33 46 
3 28 46 42 
3 30 34 47 
3 30 47 44 
3 32 35 37 
3 32 37 45 
3 33 25 39 
3 33 39 46 
3 24 27 41 
3 24 41 38 
3 34 29 43 
3 34 43 47 
3 37 36 48 
3 37 48 49 
3 39 38 50 
3 39 50 51 
3 41 40 52 
3 41 52 53 
3 43 42 54 
3 43 54 55 
3 36 44 56 
3 36 56 48 
3 40 45 57 
3 40 57 52 
3 42 46 58 
3 42 58 54 
3 44 47 59 
3 44 59 56 
3 45 37 49 
3 45 49 57 
3 46 39 51 
3 46 51 58 
3 38 41 53 
3 38 53 50 
3 47 43 55 
3 47 55 59 
3 59 55 60 
3 59 60 61 
3 49 48 62 
3 49 62 63 
3 51 50 64 
3 51 64 65 
3 53 52 66 
3 53 66 67 
3 55 54 68 
3 55 68 60 
3 48 56 69 
3 48 69 62 
3 52 57 70 
3 52 70 66 
3 54 58 71 
3 54 71 68 
3 56 59 61 
3 56 61 69 
3 57 49 63 
3 57 63 70 
3 58 51 65 
3 58 65 71 
3 50 53 67 
3 50 67 64 
3 64 67 72 
3 61 60 72 
3 63 62 72 
3 65 64 72 
3 67 66 72 
3 60 68 72 
3 62 69 72 
3 66 70 72 
3 68 71 72 
3 69 61 72 
3 70 63 72 
3 71 65 72 
3 0 3 73 
3 0 73 74 
3 4 7 75 
3 4 75 76 
3 8 11 77 
3 8 77 78 
3 14 13 79 
3 14 79 80 
3 16 0 74 
3 16 74 81 
3 18 4 76 
3 18 76 82 
3 13 8 78 
3 13 78 79 
3 20 14 80 
3 20 80 83 
3 22 16 81 
3 22 81 84 
3 3 18 82 
3 3 82 73 
3 7 20 83 
3 7 83 75 
3 11 22 84 
3 11 84 77 
3 73 82 85 
3 73 85 86 
3 75 83 87 
3 75 87 88 
3 77 84 89 
3 77 89 90 
3 74 73 86 
3 74 86 91 
3 76 75 88 
3 76 88 92 
3 78 77 90 
3 78 90 93 
3 80 79 94 
3 80 94 95 
3 81 74 91 
3 81 91 96 
3 82 76 92 
3 82 92 85 
3 79 78 93 
3 79 93 94 
3 83 80 95 
3 83 95 87 
3 84 81 96 
3 84 96 89 
3 89 96 97 
3 89 97 98 
3 86 85 99 
3 86 99 100 
3 88 87 101 
3 88 101 102 
3 90 89 98 
3 90 98 103 
3 91 86 100 
3 91 100 104 
3 92 88 102 
3 92 102 105 
3 93 90 103 
3 93 103 106 
3 95 94 107 
3 95 107 108 
3 96 91 104 
3 96 104 97 
3 85 92 105 
3 85 105 99 
3 94 93 106 
3 94 106 107 
3 87 95 108 
3 87 108 101 
3 101 108 109 
3 101 109 110 
3 98 97 111 
3 98 111 112 
3 100 99 113 
3 100 113 114 
3 102 101 110 
3 102 110 115 
3 103 98 112 
3 103 112 116 
3 104 100 114 
3 104 114 117 
3 105 102 115 
3 105 115 118 
3 106 103 116 
3 106 116 119 
3 108 107 120 
3 108 120 109 
3 97 104 117 
3 97 117 111 
3 99 105 118 
3 99 118 113 
3 107 106 119 
3 107 119 120 
3 120 119 121 
3 120 121 122 
3 110 109 123 
3 110 123 124 
3 112 111 125 
3 112 125 126 
3 114 113 127 
3 114 127 128 
3 115 110 124 
3 115 124 129 
3 116 112 126 
3 116 126 130 
3 117 114 128 
3 117 128 131 
3 118 115 129 
3 118 129 132 
3 119 116 130 
3 119 130 121 
3 109 120 122 
3 109 122 123 
3 111 117 131 
3 111 131 125 
3 113 118 132 
3 113 132 127 
3 127 132 133 
3 127 133 134 
3 122 121 135 
3 122 135 136 
3 124 123 137 
3 124 137 138 
3 126 125 139 
3 126 139 140 
3 128 127 134 
3 128 134 141 
3 129 124 138 
3 129 138 142 
3 130 126 140 
3 130 140 143 
3 131 128 141 
3 131 141 144 
3 132 129 142 
3 132 142 133 
3 121 130 143 
3 121 143 135 
3 123 122 136 
3 123 136 137 
3 125 131 144 
3 125 144 139 
3 134 133 145 
3 136 135 145 
3 138 137 145 
3 140 139 145 
3 141 134 145 
3 142 138 145 
3 143 140 145 
3 144 141 145 
3 133 142 145 
3 135 143 145 
3 137 136 145 
3 139 144 145 
