# 3ds Max Wavefront OBJ Exporter v0.97b - (c)2007 guruware
# File Created: 20.04.2018 19:08:53

#
# object Export_Cart
#

v  -0.8167 -0.1648 0.1153
v  -0.8167 -0.1648 0.0549
v  -0.5781 -0.1378 0.0549
v  -0.5781 -0.1378 0.1153
v  -0.8256 -0.0868 0.1153
v  -0.5869 -0.0598 0.1153
v  -0.5869 -0.0598 0.0549
v  -0.8256 -0.0868 0.0549
v  0.9101 -0.0497 0.4246
v  0.9272 -0.0495 0.3466
v  0.9265 0.0290 0.3466
v  0.9094 0.0288 0.4246
v  0.1755 -0.0581 0.2490
v  0.1667 0.0200 0.2490
v  0.1755 -0.0581 0.3257
v  0.1667 0.0200 0.3257
v  -0.8167 -0.1648 -0.1153
v  -0.5781 -0.1378 -0.1153
v  -0.5781 -0.1378 -0.0549
v  -0.8167 -0.1648 -0.0549
v  -0.8256 -0.0868 -0.1153
v  -0.8256 -0.0868 -0.0549
v  -0.5869 -0.0598 -0.0549
v  -0.5869 -0.0598 -0.1153
v  0.9101 -0.0497 -0.4246
v  0.9094 0.0288 -0.4246
v  0.9265 0.0290 -0.3466
v  0.9272 -0.0495 -0.3466
v  0.1667 0.0200 -0.2489
v  0.1755 -0.0581 -0.2489
v  0.1755 -0.0581 -0.3257
v  0.1667 0.0200 -0.3257
v  -0.7243 -0.1125 -0.1584
v  -0.7580 -0.0856 -0.1584
v  -0.7527 -0.0904 0.1574
v  -0.7210 -0.1157 0.1574
v  -0.7518 -0.1470 -0.1584
v  -0.7469 -0.1481 0.1574
v  -0.7855 -0.1201 -0.1584
v  -0.7786 -0.1229 0.1574
v  -0.5907 -0.1110 -0.0429
v  -0.6308 -0.2338 -0.0429
v  -0.7459 -0.2922 -0.0429
v  -0.7720 0.0443 -0.0429
v  -0.6492 0.0042 -0.0429
v  -0.9272 -0.1370 0.0419
v  -0.8687 -0.2521 0.0419
v  -0.7459 -0.2922 0.0419
v  -0.7720 0.0443 0.0419
v  -0.8871 -0.0142 0.0419
v  -0.6308 -0.2338 0.0419
v  -0.5907 -0.1110 0.0419
v  -0.6492 0.0042 0.0419
v  -0.8871 -0.0142 -0.0429
v  -0.9272 -0.1370 -0.0429
v  -0.8687 -0.2521 -0.0429
v  0.2401 -0.0812 -0.3672
v  0.2245 0.0566 -0.3672
v  0.2246 0.0536 0.3662
v  0.2402 -0.0836 0.3662
v  0.1911 -0.0867 -0.3672
v  0.1919 -0.0891 0.3662
v  0.1755 0.0511 -0.3672
v  0.1763 0.0481 0.3662
v  0.1991 -0.2772 -0.2548
v  0.1837 -0.2815 -0.3189
v  0.1449 0.0432 -0.3114
v  0.1574 0.0472 -0.2594
v  0.1499 -0.2827 -0.2402
v  0.1351 -0.2870 -0.3045
v  0.1174 0.0426 -0.2476
v  0.1055 0.0387 -0.2998
v  0.1980 -0.2773 0.2546
v  0.1574 0.0472 0.2584
v  0.1449 0.0432 0.3104
v  0.1831 -0.2815 0.3165
v  0.1505 -0.2827 0.2406
v  0.1362 -0.2868 0.3026
v  0.1174 0.0426 0.2466
v  0.1055 0.0387 0.2988
v  -0.5614 -0.0547 0.1591
v  -0.5614 -0.0547 -0.1601
v  0.1666 0.0196 -0.2176
v  0.1666 0.0196 0.2166
v  -0.5554 -0.0018 0.1535
v  0.1498 0.0620 0.2090
v  0.1498 0.0620 -0.2099
v  -0.5554 -0.0018 -0.1545
v  0.2459 0.2922 0.3202
v  -0.7075 0.2623 0.2352
v  0.2459 0.2922 -0.3212
v  -0.7075 0.2623 -0.2362
v  0.2075 0.2911 0.2868
v  -0.6690 0.2634 0.2107
v  0.2075 0.2911 -0.2878
v  -0.6690 0.2634 -0.2117
# 96 vertices

vn 0.1124 -0.9937 -0.0000
vn 0.1091 -0.9940 -0.0000
vn 0.1085 -0.9941 -0.0000
vn -0.1124 0.9937 -0.0000
vn -0.1085 0.9941 -0.0000
vn -0.1091 0.9940 -0.0000
vn 0.0000 -0.0000 1.0000
vn 0.9767 0.0087 0.2146
vn 0.8173 0.0122 -0.5761
vn 0.8184 0.0122 -0.5745
vn 0.1856 0.0175 -0.9825
vn 0.1897 0.0182 -0.9817
vn -0.9937 -0.1124 -0.0000
vn 0.0638 -0.9980 0.0001
vn 0.0114 -0.9999 0.0003
vn 0.0520 -0.9986 0.0002
vn -0.0523 0.9986 -0.0002
vn -0.0119 0.9999 -0.0003
vn -0.0640 0.9979 -0.0001
vn -0.1975 -0.0188 0.9801
vn -0.1326 -0.0081 0.9911
vn -0.2021 -0.0195 0.9792
vn 0.2466 0.0279 -0.9687
vn -0.2659 -0.0301 0.9635
vn -0.0000 0.0000 -1.0000
vn 0.0000 -0.0000 -1.0000
vn 0.9767 0.0087 -0.2146
vn 0.8184 0.0122 0.5745
vn 0.8173 0.0122 0.5760
vn 0.1897 0.0182 0.9817
vn 0.1856 0.0175 0.9825
vn 0.0638 -0.9980 -0.0001
vn 0.0520 -0.9986 -0.0002
vn 0.0114 -0.9999 -0.0003
vn -0.0523 0.9986 0.0002
vn -0.0640 0.9979 0.0001
vn -0.0119 0.9999 0.0003
vn -0.1975 -0.0188 -0.9801
vn -0.2021 -0.0195 -0.9792
vn -0.1327 -0.0081 -0.9911
vn 0.2465 0.0279 0.9687
vn -0.2658 -0.0301 -0.9636
vn -0.0000 -0.0000 1.0000
vn 0.9930 0.1174 -0.0092
vn 0.6231 0.7821 0.0013
vn 0.9942 0.1075 -0.0093
vn 0.7820 -0.6231 -0.0144
vn -0.9940 -0.1075 0.0208
vn -0.6231 -0.7821 0.0069
vn -0.9929 -0.1174 0.0207
vn -0.7819 0.6230 0.0225
vn 0.0000 0.0000 -1.0000
vn 0.0000 0.0000 1.0000
vn 0.4528 -0.8916 0.0000
vn 0.7595 -0.6505 -0.0000
vn 0.9970 0.0771 -0.0000
vn 0.6505 0.7595 -0.0000
vn 0.3103 0.9506 -0.0000
vn -0.4528 0.8916 -0.0000
vn -0.7595 0.6505 -0.0000
vn -0.9970 -0.0771 0.0000
vn -0.6505 -0.7595 0.0000
vn -0.3103 -0.9506 0.0000
vn -0.0000 0.0000 1.0000
vn 0.9937 0.1124 0.0002
vn 0.1124 -0.9937 -0.0034
vn -0.9937 -0.1124 0.0007
vn -0.1124 0.9937 0.0041
vn 0.8641 0.1183 0.4893
vn 0.9632 0.1205 -0.2403
vn 0.8530 0.1171 0.5086
vn 0.1232 -0.9917 0.0373
vn -0.9692 -0.0915 0.2287
vn -0.8687 -0.0720 -0.4901
vn -0.8551 -0.0704 -0.5137
vn -0.1257 0.9910 -0.0460
vn 0.2780 0.0496 0.9593
vn -0.2823 -0.0118 -0.9593
vn 0.8647 0.1140 -0.4892
vn 0.8534 0.1128 -0.5089
vn 0.9635 0.1178 0.2402
vn 0.1232 -0.9917 -0.0373
vn -0.9689 -0.0942 -0.2289
vn -0.8549 -0.0747 0.5135
vn -0.8682 -0.0762 0.4903
vn -0.1257 0.9910 0.0460
vn 0.2784 0.0461 -0.9593
vn -0.2819 -0.0153 0.9593
vn 0.1016 -0.9948 -0.0000
vn -0.0902 0.9959 0.0000
vn -0.0623 -0.2973 0.9527
vn 0.9602 -0.2794 -0.0000
vn -0.0623 -0.2973 -0.9527
vn -0.9083 -0.4184 -0.0000
vn -0.0295 0.9996 0.0000
vn -0.0296 0.9996 0.0000
vn -0.0299 0.9996 0.0000
vn -0.0300 0.9996 0.0000
vn -0.0296 0.9996 -0.0000
vn -0.0299 0.9996 -0.0000
vn -0.0295 0.9996 -0.0000
vn -0.0300 0.9996 -0.0000
vn 0.0643 0.2698 -0.9608
vn -0.9697 0.2442 -0.0000
vn 0.0643 0.2698 0.9608
vn 0.9192 0.3937 -0.0000
# 106 vertex normals

vt 0.3383 0.1889 0.0000
vt 0.3634 0.1850 0.0000
vt 0.3785 0.2828 0.0000
vt 0.3534 0.2867 0.0000
vt 0.0975 0.8471 0.0000
vt 0.1238 0.7516 0.0000
vt 0.1483 0.7584 0.0000
vt 0.1220 0.8538 0.0000
vt 0.1456 0.2482 0.0000
vt 0.1412 0.3491 0.0000
vt 0.1082 0.3476 0.0000
vt 0.1126 0.2468 0.0000
vt 0.3358 0.6081 0.0000
vt 0.3686 0.6087 0.0000
vt 0.3686 0.6416 0.0000
vt 0.3358 0.6409 0.0000
vt 0.2547 0.2234 0.0000
vt 0.2482 0.5393 0.0000
vt 0.2153 0.5420 0.0000
vt 0.2217 0.2227 0.0000
vt 0.3432 0.6846 0.0000
vt 0.3686 0.6846 0.0000
vt 0.3686 0.7170 0.0000
vt 0.3432 0.7170 0.0000
vt 0.3456 0.6044 0.0000
vt 0.3531 0.9214 0.0000
vt 0.3195 0.9193 0.0000
vt 0.3137 0.6093 0.0000
vt 0.1217 0.4266 0.0000
vt 0.1642 0.1161 0.0000
vt 0.1977 0.1179 0.0000
vt 0.1528 0.4352 0.0000
vt 0.1297 0.6673 0.0000
vt 0.1475 0.9755 0.0000
vt 0.1145 0.9775 0.0000
vt 0.0967 0.6659 0.0000
vt 0.2716 0.8569 0.0000
vt 0.2387 0.8595 0.0000
vt 0.2798 0.9575 0.0000
vt 0.2469 0.9601 0.0000
vt 0.1635 0.0373 0.0000
vt 0.1445 0.1345 0.0000
vt 0.1196 0.1296 0.0000
vt 0.1386 0.0325 0.0000
vt 0.1418 0.1323 0.0000
vt 0.1669 0.1284 0.0000
vt 0.1820 0.2263 0.0000
vt 0.1569 0.2301 0.0000
vt 0.0453 0.2118 0.0000
vt 0.0783 0.2118 0.0000
vt 0.0784 0.3128 0.0000
vt 0.0454 0.3128 0.0000
vt 0.2723 0.5242 0.0000
vt 0.2723 0.5570 0.0000
vt 0.2395 0.5577 0.0000
vt 0.2395 0.5248 0.0000
vt 0.0305 0.0773 0.0000
vt 0.0634 0.0746 0.0000
vt 0.0885 0.3929 0.0000
vt 0.0555 0.3922 0.0000
vt 0.0633 0.2842 0.0000
vt 0.0633 0.3166 0.0000
vt 0.0379 0.3166 0.0000
vt 0.0379 0.2842 0.0000
vt 0.1399 0.4522 0.0000
vt 0.1715 0.4584 0.0000
vt 0.1536 0.7680 0.0000
vt 0.1200 0.7688 0.0000
vt 0.1173 0.5527 0.0000
vt 0.1491 0.5478 0.0000
vt 0.1571 0.8682 0.0000
vt 0.1236 0.8661 0.0000
vt 0.0432 0.6312 0.0000
vt 0.0762 0.6312 0.0000
vt 0.0449 0.9418 0.0000
vt 0.0121 0.9384 0.0000
vt 0.0837 0.7113 0.0000
vt 0.0508 0.7106 0.0000
vt 0.0815 0.8122 0.0000
vt 0.0485 0.8115 0.0000
vt 0.3671 0.5651 0.0000
vt 0.3520 0.5651 0.0000
vt 0.3544 0.4323 0.0000
vt 0.3686 0.4323 0.0000
vt 0.0958 0.2071 0.0000
vt 0.1112 0.2071 0.0000
vt 0.1100 0.3398 0.0000
vt 0.0955 0.3398 0.0000
vt 0.1619 0.1964 0.0000
vt 0.1770 0.1964 0.0000
vt 0.1791 0.3291 0.0000
vt 0.1649 0.3291 0.0000
vt 0.3364 0.3530 0.0000
vt 0.3209 0.3530 0.0000
vt 0.3201 0.2203 0.0000
vt 0.3346 0.2203 0.0000
vt 0.2057 0.4625 0.0000
vt 0.2052 0.4440 0.0000
vt 0.2233 0.4435 0.0000
vt 0.2238 0.4621 0.0000
vt 0.2055 0.4328 0.0000
vt 0.2052 0.4153 0.0000
vt 0.2223 0.4151 0.0000
vt 0.2225 0.4325 0.0000
vt 0.3636 0.4217 0.0000
vt 0.3252 0.4601 0.0000
vt 0.2709 0.4600 0.0000
vt 0.3254 0.3290 0.0000
vt 0.3637 0.3675 0.0000
vt 0.3641 0.3708 0.0000
vt 0.3631 0.4251 0.0000
vt 0.3240 0.4628 0.0000
vt 0.2721 0.3308 0.0000
vt 0.3264 0.3317 0.0000
vt 0.2328 0.1266 0.0000
vt 0.2713 0.1266 0.0000
vt 0.2713 0.1782 0.0000
vt 0.2328 0.1782 0.0000
vt 0.2328 0.2371 0.0000
vt 0.2713 0.2371 0.0000
vt 0.2713 0.2887 0.0000
vt 0.2328 0.2887 0.0000
vt 0.2328 0.0696 0.0000
vt 0.2713 0.0696 0.0000
vt 0.2713 0.1286 0.0000
vt 0.2328 0.1286 0.0000
vt 0.2713 0.1801 0.0000
vt 0.2328 0.1801 0.0000
vt 0.2713 0.2391 0.0000
vt 0.2328 0.2391 0.0000
vt 0.2713 0.2906 0.0000
vt 0.2328 0.2906 0.0000
vt 0.2328 0.0677 0.0000
vt 0.2713 0.0677 0.0000
vt 0.2321 0.4227 0.0000
vt 0.2330 0.3685 0.0000
vt 0.2698 0.4618 0.0000
vt 0.2326 0.4215 0.0000
vt 0.2327 0.3672 0.0000
vt 0.2712 0.3289 0.0000
vt 0.3533 0.6806 0.0000
vt 0.4104 0.6806 0.0000
vt 0.4091 0.9888 0.0000
vt 0.3522 0.9888 0.0000
vt 0.0440 0.2468 0.0000
vt 0.0643 0.2468 0.0000
vt 0.0644 0.5550 0.0000
vt 0.0444 0.5550 0.0000
vt 0.4099 0.7731 0.0000
vt 0.3528 0.7731 0.0000
vt 0.3518 0.4649 0.0000
vt 0.4087 0.4649 0.0000
vt 0.3666 0.7815 0.0000
vt 0.3463 0.7815 0.0000
vt 0.3467 0.4732 0.0000
vt 0.3668 0.4732 0.0000
vt 0.2497 0.8262 0.0000
vt 0.2705 0.8261 0.0000
vt 0.2707 0.8844 0.0000
vt 0.2500 0.8845 0.0000
vt 0.2652 0.8882 0.0000
vt 0.2856 0.8876 0.0000
vt 0.2876 0.9455 0.0000
vt 0.2671 0.9462 0.0000
vt 0.2380 0.6495 0.0000
vt 0.2707 0.6466 0.0000
vt 0.2641 0.7810 0.0000
vt 0.2422 0.7831 0.0000
vt 0.0361 0.2412 0.0000
vt 0.0377 0.2077 0.0000
vt 0.0633 0.2071 0.0000
vt 0.0620 0.2406 0.0000
vt 0.2197 0.0110 0.0000
vt 0.2417 0.0123 0.0000
vt 0.2509 0.1481 0.0000
vt 0.2181 0.1465 0.0000
vt 0.3686 0.8348 0.0000
vt 0.3635 0.8566 0.0000
vt 0.3471 0.8517 0.0000
vt 0.3520 0.8298 0.0000
vt 0.1682 0.8188 0.0000
vt 0.1364 0.9525 0.0000
vt 0.1198 0.9492 0.0000
vt 0.1434 0.8139 0.0000
vt 0.2504 0.4919 0.0000
vt 0.2474 0.3544 0.0000
vt 0.2723 0.3543 0.0000
vt 0.2670 0.4918 0.0000
vt 0.1737 0.6505 0.0000
vt 0.1696 0.7842 0.0000
vt 0.1478 0.7821 0.0000
vt 0.1413 0.6477 0.0000
vt 0.1491 0.8272 0.0000
vt 0.1737 0.8346 0.0000
vt 0.1661 0.8669 0.0000
vt 0.1419 0.8597 0.0000
vt 0.0780 0.0192 0.0000
vt 0.0792 0.1547 0.0000
vt 0.0466 0.1562 0.0000
vt 0.0560 0.0205 0.0000
vt 0.3686 0.7818 0.0000
vt 0.3520 0.7868 0.0000
vt 0.3471 0.7649 0.0000
vt 0.3635 0.7600 0.0000
vt 0.1326 0.7253 0.0000
vt 0.1577 0.7252 0.0000
vt 0.1550 0.8625 0.0000
vt 0.1381 0.8625 0.0000
vt 0.1530 0.8013 0.0000
vt 0.1697 0.8020 0.0000
vt 0.1694 0.9396 0.0000
vt 0.1448 0.9386 0.0000
vt 0.2668 0.3221 0.0000
vt 0.1326 0.3221 0.0000
vt 0.1084 0.0199 0.0000
vt 0.2909 0.0199 0.0000
vt 0.2312 0.3183 0.0000
vt 0.2079 0.0253 0.0000
vt 0.3839 0.0253 0.0000
vt 0.3606 0.3183 0.0000
vt 0.1971 0.4419 0.0000
vt 0.1795 0.6878 0.0000
vt 0.0885 0.7173 0.0000
vt 0.0889 0.3960 0.0000
vt 0.1860 0.7750 0.0000
vt 0.1860 0.9348 0.0000
vt 0.0836 0.9729 0.0000
vt 0.0836 0.7369 0.0000
vt 0.1801 0.2222 0.0000
vt 0.1973 0.4682 0.0000
vt 0.0890 0.5140 0.0000
vt 0.0891 0.1926 0.0000
vt 0.0922 0.2837 0.0000
vt 0.0922 0.1718 0.0000
vt 0.1987 0.1451 0.0000
vt 0.1987 0.3104 0.0000
vt 0.0977 0.5991 0.0000
vt 0.0969 0.1993 0.0000
vt 0.1094 0.2165 0.0000
vt 0.1094 0.5840 0.0000
vt 0.1851 0.0672 0.0000
vt 0.1851 0.3367 0.0000
vt 0.1691 0.3227 0.0000
vt 0.1691 0.0812 0.0000
vt 0.3173 0.2348 0.0000
vt 0.3164 0.6346 0.0000
vt 0.3048 0.6195 0.0000
vt 0.3047 0.2520 0.0000
vt 0.0354 0.5352 0.0000
vt 0.0354 0.3371 0.0000
vt 0.0514 0.3474 0.0000
vt 0.0514 0.5249 0.0000
vt 0.0898 0.6978 0.0000
vt 0.0898 0.3494 0.0000
vt 0.1801 0.3752 0.0000
vt 0.1965 0.6560 0.0000
vt 0.1874 0.7254 0.0000
vt 0.1874 0.9669 0.0000
vt 0.0895 0.9342 0.0000
vt 0.0895 0.7581 0.0000
vt 0.0891 0.9230 0.0000
vt 0.0896 0.5746 0.0000
vt 0.1963 0.6166 0.0000
vt 0.1793 0.8974 0.0000
vt 0.1935 0.3058 0.0000
vt 0.1935 0.4833 0.0000
vt 0.0864 0.4593 0.0000
vt 0.0864 0.3299 0.0000
# 268 texture coords

g Export_Cart
s off
f 1/1/1 2/2/1 3/3/2 4/4/3 
f 5/5/4 6/6/5 7/7/6 8/8/4 
f 1/9/7 4/10/7 6/11/7 5/12/7 
f 9/13/8 10/14/9 11/15/10 12/16/8 
f 10/17/9 13/18/11 14/19/12 11/20/10 
f 2/21/13 1/22/13 5/23/13 8/24/13 
f 13/25/14 10/26/15 9/27/15 15/28/16 
f 16/29/17 12/30/18 11/31/18 14/32/19 
f 15/33/20 9/34/21 12/35/21 16/36/22 
f 13/18/11 3/37/23 7/38/23 14/19/12 
f 3/3/2 13/25/14 15/28/16 4/4/3 
f 6/6/5 16/29/17 14/32/19 7/7/6 
f 4/10/24 15/33/20 16/36/22 6/11/24 
f 3/37/25 2/39/25 8/40/25 7/38/25 
f 17/41/1 18/42/3 19/43/2 20/44/1 
f 21/45/4 22/46/4 23/47/6 24/48/5 
f 17/49/26 21/50/26 24/51/26 18/52/26 
f 25/53/27 26/54/27 27/55/28 28/56/29 
f 28/57/29 27/58/28 29/59/30 30/60/31 
f 20/61/13 22/62/13 21/63/13 17/64/13 
f 30/65/32 31/66/33 25/67/34 28/68/34 
f 32/69/35 29/70/36 27/71/37 26/72/37 
f 31/73/38 32/74/39 26/75/40 25/76/40 
f 30/60/31 29/59/30 23/77/41 19/78/41 
f 19/43/2 18/42/3 31/66/33 30/65/32 
f 24/48/5 23/47/6 29/70/36 32/69/35 
f 18/52/42 24/51/42 32/74/39 31/73/38 
f 19/78/43 23/77/43 22/79/43 20/80/43 
f 33/81/44 34/82/45 35/83/45 36/84/46 
f 37/85/47 33/86/44 36/87/46 38/88/47 
f 39/89/48 37/90/49 38/91/49 40/92/50 
f 34/93/51 39/94/48 40/95/50 35/96/51 
f 33/97/52 37/98/52 39/99/52 34/100/52 
f 35/101/53 40/102/53 38/103/53 36/104/53 
f 41/105/52 42/106/52 43/107/52 
f 41/105/52 43/107/52 44/108/52 
f 41/105/52 44/108/52 45/109/52 
f 46/110/53 47/111/53 48/112/53 
f 46/110/53 48/112/53 49/113/7 
f 50/114/53 46/110/53 49/113/7 
f 48/115/54 43/116/54 42/117/55 51/118/55 
f 52/119/56 51/118/55 42/117/55 41/120/56 
f 52/119/56 41/120/56 45/121/57 53/122/57 
f 53/123/57 45/124/57 44/125/58 49/126/58 
f 49/126/59 44/125/59 54/127/60 50/128/60 
f 50/128/60 54/127/60 55/129/61 46/130/61 
f 46/130/61 55/129/61 56/131/62 47/132/62 
f 47/133/62 56/134/62 43/116/63 48/115/63 
f 52/135/53 53/136/43 49/113/7 
f 51/137/64 52/135/53 48/112/53 
f 43/107/52 56/138/52 55/139/52 
f 55/139/52 54/140/52 44/108/52 
f 43/107/52 55/139/52 44/108/52 
f 52/135/53 49/113/7 48/112/53 
f 57/141/65 58/142/65 59/143/65 60/144/65 
f 61/145/66 57/146/66 60/147/66 62/148/66 
f 63/149/67 61/150/67 62/151/67 64/152/67 
f 58/153/68 63/154/68 64/155/68 59/156/68 
f 57/157/52 61/158/52 63/159/52 58/160/52 
f 59/161/53 64/162/53 62/163/53 60/164/53 
f 65/165/69 66/166/70 67/167/70 68/168/71 
f 69/169/72 70/170/72 66/171/72 65/172/72 
f 71/173/73 72/174/74 70/175/75 69/176/73 
f 68/177/76 67/178/76 72/179/76 71/180/76 
f 65/181/69 68/182/71 71/183/77 69/184/77 
f 67/185/78 66/186/78 70/187/75 72/188/74 
f 73/189/79 74/190/80 75/191/81 76/192/81 
f 77/193/82 73/194/82 76/195/82 78/196/82 
f 79/197/83 77/198/83 78/199/84 80/200/85 
f 74/201/86 79/202/86 80/203/86 75/204/86 
f 73/205/79 77/206/87 79/207/87 74/208/80 
f 75/209/88 80/210/85 78/211/84 76/212/88 
f 81/213/89 82/214/89 83/215/89 84/216/89 
f 85/217/90 86/218/90 87/219/90 88/220/90 
f 81/221/91 84/222/91 89/223/91 90/224/91 
f 84/225/92 83/226/92 91/227/92 89/228/92 
f 83/229/93 82/230/93 92/231/93 91/232/93 
f 82/233/94 81/234/94 90/235/94 92/236/94 
f 90/237/95 89/238/96 93/239/97 94/240/98 
f 89/241/96 91/242/99 95/243/100 93/244/97 
f 91/245/99 92/246/101 96/247/102 95/248/100 
f 92/249/101 90/250/95 94/251/98 96/252/102 
f 94/253/103 93/254/103 86/255/103 85/256/103 
f 93/257/104 95/258/104 87/259/104 86/260/104 
f 95/261/105 96/262/105 88/263/105 87/264/105 
f 96/265/106 94/266/106 85/267/106 88/268/106 
# 74 polygons - 12 triangles

