# 3ds Max Wavefront OBJ Exporter v0.97b - (c)2007 guruware
# File Created: 09.01.2018 19:37:57

mtllib Cloud3.mtl

#
# object Cloud
#

v  -25.0000 25.0000 0.0000
v  -25.0000 -25.0000 -0.0000
v  25.0000 25.0000 0.0000
v  25.0000 -25.0000 -0.0000
# 4 vertices

vn 0.0000 -0.0000 1.0000
vn 0.0000 -0.0000 1.0000
vn 0.0000 -0.0000 1.0000
vn 0.0000 -0.0000 1.0000
vn 0.0000 -0.0000 1.0000
vn 0.0000 -0.0000 1.0000
# 6 vertex normals

vt 0.5036 0.9957 0.0000
vt 0.5036 0.7524 0.0000
vt 0.7475 0.9957 0.0000
vt 0.7475 0.7524 0.0000
# 4 texture coords

o Cloud
g Cloud
usemtl Clouds
f 1/1/1 2/2/2 3/3/3 
f 4/4/4 3/3/5 2/2/6 
# 2 faces

