# 3ds Max Wavefront OBJ Exporter v0.97b - (c)2007 guruware
# File Created: 20.04.2018 14:53:24

#
# object Export_Coffin_Closed
#

v  -0.2973 -0.1730 1.0322
v  0.2969 -0.1730 1.0322
v  0.2969 0.1730 1.0322
v  -0.2973 0.1730 1.0322
v  0.4176 -0.1730 -0.4920
v  0.4176 0.1730 -0.4920
v  0.2942 -0.1730 -1.0316
v  -0.2945 -0.1730 -1.0316
v  -0.2945 0.1730 -1.0316
v  0.2942 0.1730 -1.0316
v  -0.4176 -0.1730 -0.4920
v  -0.4176 0.1730 -0.4920
v  -0.3137 0.2318 1.0476
v  0.3138 0.2318 1.0476
v  0.4595 0.2318 -0.4920
v  -0.4595 0.2318 -0.4920
v  0.3086 0.2318 -1.0476
v  -0.3086 0.2318 -1.0476
v  0.3138 0.1730 1.0476
v  -0.3137 0.1730 1.0476
v  0.4595 0.1730 -0.4920
v  -0.3086 0.1730 -1.0476
v  0.3086 0.1730 -1.0476
v  -0.4595 0.1730 -0.4920
v  -0.3137 -0.1730 1.0476
v  0.3138 -0.1730 1.0476
v  0.4595 -0.1730 -0.4920
v  -0.4595 -0.1730 -0.4920
v  0.3086 -0.1730 -1.0476
v  -0.3086 -0.1730 -1.0476
v  0.3138 -0.2318 1.0476
v  -0.3137 -0.2318 1.0476
v  0.4595 -0.2318 -0.4920
v  -0.3086 -0.2318 -1.0476
v  0.3086 -0.2318 -1.0476
v  -0.4595 -0.2318 -0.4920
# 36 vertices

vn 0.0000 -0.0000 1.0000
vn 0.9973 -0.0000 -0.0728
vn 0.9969 -0.0000 0.0789
vn 0.0000 -0.0000 -1.0000
vn -0.9974 -0.0000 -0.0726
vn -0.9750 -0.0000 -0.2223
vn 0.9748 -0.0000 -0.2229
vn -0.9969 -0.0000 0.0787
vn 0.0000 1.0000 -0.0000
vn 0.0000 0.0000 1.0000
vn 0.9964 0.0000 -0.0853
vn 0.9955 0.0000 0.0942
vn 0.0000 0.0000 -1.0000
vn -0.9964 0.0000 -0.0853
vn -0.9650 0.0000 -0.2621
vn 0.9650 0.0000 -0.2621
vn -0.9955 0.0000 0.0943
vn 0.0000 -1.0000 -0.0000
vn 0.9956 0.0000 0.0942
# 19 vertex normals

vt 0.2676 0.7776 0.0000
vt 0.2676 0.9959 0.0000
vt 0.0262 0.9959 0.0000
vt 0.0262 0.7776 0.0000
vt 0.2676 0.5707 0.0000
vt 0.0262 0.5707 0.0000
vt 0.0262 0.0038 0.0000
vt 0.2676 0.0038 0.0000
vt 0.4166 0.0294 0.0000
vt 0.8543 0.0294 0.0000
vt 0.9559 0.7202 0.0000
vt 0.3149 0.7202 0.0000
vt 0.8507 0.9696 0.0000
vt 0.4202 0.9696 0.0000
vt 0.8543 0.0030 0.0000
vt 0.4166 0.0030 0.0000
vt 0.9967 0.7178 0.0000
vt 0.8951 0.0269 0.0000
vt 0.4202 0.9959 0.0000
vt 0.8507 0.9959 0.0000
vt 0.2753 0.7271 0.0000
vt 0.3806 0.9765 0.0000
vt 0.8902 0.9765 0.0000
vt 0.9955 0.7271 0.0000
vt 0.3758 0.0269 0.0000
vt 0.2741 0.7178 0.0000
vt 0.8542 0.0294 0.0000
vt 0.4165 0.0294 0.0000
# 28 texture coords

g Export_Coffin_Closed
s off
f 1/1/1 2/2/1 3/3/1 4/4/1 
f 5/5/2 6/6/2 3/7/3 2/8/3 
f 7/1/4 8/2/4 9/3/4 10/4/4 
f 11/5/5 12/6/5 9/4/6 8/1/6 
f 7/1/7 10/4/7 6/6/2 5/5/2 
f 1/8/8 4/7/8 12/6/5 11/5/5 
f 13/9/9 14/10/9 15/11/9 16/12/9 
f 15/11/9 17/13/9 18/14/9 16/12/9 
f 19/15/10 14/10/10 13/9/10 20/16/10 
f 21/17/11 15/11/11 14/10/12 19/18/12 
f 22/19/13 18/14/13 17/13/13 23/20/13 
f 24/21/14 16/12/14 18/14/15 22/22/15 
f 23/23/16 17/13/16 15/11/11 21/24/11 
f 20/25/17 13/9/17 16/12/14 24/26/14 
f 20/27/18 24/11/18 21/12/18 19/28/18 
f 24/11/18 22/13/18 23/14/18 21/12/18 
f 25/9/9 26/10/9 27/11/9 28/12/9 
f 27/11/9 29/13/9 30/14/9 28/12/9 
f 31/15/10 26/10/10 25/9/10 32/16/10 
f 33/17/11 27/11/11 26/10/19 31/18/19 
f 34/19/13 30/14/13 29/13/13 35/20/13 
f 36/21/14 28/12/14 30/14/15 34/22/15 
f 35/23/16 29/13/16 27/11/11 33/24/11 
f 32/25/17 25/9/17 28/12/14 36/26/14 
f 32/27/18 36/11/18 33/12/18 31/28/18 
f 36/11/18 34/13/18 35/14/18 33/12/18 
# 26 polygons

