# 3ds Max Wavefront OBJ Exporter v0.97b - (c)2007 guruware
# File Created: 08.02.2018 14:39:30

mtllib Collision.mtl

#
# object Collision
#

v  -8.6745 0.0678 -13.2967
v  -8.6745 0.0678 13.0824
v  8.6084 0.0678 -13.2967
v  8.6084 0.0678 13.0824
v  8.6084 2.9652 13.0824
v  -8.6745 2.9652 13.0824
v  8.6084 2.9652 -13.2967
v  -8.6745 2.9652 -13.2967
# 8 vertices

vn 0.0000 1.0000 -0.0000
vn 0.0000 0.0000 -1.0000
vn -1.0000 0.0000 -0.0000
vn 0.0000 0.0000 1.0000
vn 1.0000 0.0000 -0.0000
# 5 vertex normals

vt 0.3638 0.8792 0.0000
vt 0.3638 0.7819 0.0000
vt 0.2666 0.8792 0.0000
vt 0.2666 0.7819 0.0000
# 4 texture coords

o Collision
g Collision
usemtl wire
f 1/1/1 2/2/1 3/3/1 
f 4/4/1 3/3/1 2/2/1 
f 4/2/2 2/4/2 5/1/2 
f 6/3/2 5/1/2 2/4/2 
f 3/2/3 4/4/3 7/1/3 
f 5/3/3 7/1/3 4/4/3 
f 1/2/4 3/4/4 8/1/4 
f 7/3/4 8/1/4 3/4/4 
f 2/2/5 1/4/5 6/1/5 
f 8/3/5 6/1/5 1/4/5 
# 10 faces

