# 3ds Max Wavefront OBJ Exporter v0.97b - (c)2007 guruware
# File Created: 20.04.2018 19:45:00

#
# object Decal001
#

v  3.0108 0.0175 -14.7750
v  4.0334 0.0175 -12.1066
v  6.7017 0.0175 -13.1292
v  5.6792 0.0175 -15.7975
# 4 vertices

vn 0.0000 1.0000 -0.0000
# 1 vertex normals

vt 0.0000 0.0000 0.0000
vt 1.0000 0.0000 0.0000
vt 1.0000 1.0000 0.0000
vt 0.0000 1.0000 0.0000
# 4 texture coords

g Decal001
s off
f 1/1/1 2/2/1 3/3/1 4/4/1 
# 1 polygons

#
# object Decal002
#

v  -9.4859 0.0225 -14.2894
v  -6.7619 0.0225 -11.3724
v  -3.8448 0.0225 -14.0963
v  -6.5688 0.0225 -17.0134
# 4 vertices

vn 0.0000 1.0000 -0.0000
# 1 vertex normals

vt 0.0000 0.0000 0.0000
vt 1.0000 0.0000 0.0000
vt 1.0000 1.0000 0.0000
vt 0.0000 1.0000 0.0000
# 4 texture coords

g Decal002
s off
f 5/5/2 6/6/2 7/7/2 8/8/2 
# 1 polygons

#
# object Decal003
#

v  -3.7909 0.0210 -29.5211
v  -0.1315 0.0210 -29.5211
v  -0.1315 0.0210 -33.1805
v  -3.7909 0.0210 -33.1805
# 4 vertices

vn 0.0000 1.0000 -0.0000
# 1 vertex normals

vt 0.0000 0.0000 0.0000
vt 1.0000 0.0000 0.0000
vt 1.0000 1.0000 0.0000
vt 0.0000 1.0000 0.0000
# 4 texture coords

g Decal003
s off
f 9/9/3 10/10/3 11/11/3 12/12/3 
# 1 polygons

#
# object Decal004
#

v  -15.0358 0.0210 -11.7068
v  -11.3765 0.0210 -11.7068
v  -11.3765 0.0210 -15.3662
v  -15.0358 0.0210 -15.3662
# 4 vertices

vn 0.0000 1.0000 -0.0000
# 1 vertex normals

vt 0.0000 0.0000 0.0000
vt 1.0000 0.0000 0.0000
vt 1.0000 1.0000 0.0000
vt 0.0000 1.0000 0.0000
# 4 texture coords

g Decal004
s off
f 13/13/4 14/14/4 15/15/4 16/16/4 
# 1 polygons

#
# object Decal005
#

v  15.4735 0.0175 -10.2007
v  18.3311 0.0175 -10.2007
v  18.3311 0.0175 -13.0583
v  15.4735 0.0175 -13.0583
# 4 vertices

vn 0.0000 1.0000 -0.0000
# 1 vertex normals

vt 0.0000 0.0000 0.0000
vt 1.0000 0.0000 0.0000
vt 1.0000 1.0000 0.0000
vt 0.0000 1.0000 0.0000
# 4 texture coords

g Decal005
s off
f 17/17/5 18/18/5 19/19/5 20/20/5 
# 1 polygons

#
# object Decal006
#

v  -3.3311 0.0175 16.2559
v  -3.9732 0.0175 13.4714
v  -6.7577 0.0175 14.1136
v  -6.1156 0.0175 16.8981
# 4 vertices

vn 0.0000 1.0000 -0.0000
# 1 vertex normals

vt 0.0000 0.0000 0.0000
vt 1.0000 0.0000 0.0000
vt 1.0000 1.0000 0.0000
vt 0.0000 1.0000 0.0000
# 4 texture coords

g Decal006
s off
f 21/21/6 22/22/6 23/23/6 24/24/6 
# 1 polygons

#
# object Decal007
#

v  2.3812 0.0216 31.5952
v  6.1788 0.0216 31.5952
v  6.1788 0.0216 27.7976
v  2.3812 0.0216 27.7976
# 4 vertices

vn 0.0000 1.0000 -0.0000
# 1 vertex normals

vt 0.0000 0.0000 0.0000
vt 1.0000 0.0000 0.0000
vt 1.0000 1.0000 0.0000
vt 0.0000 1.0000 0.0000
# 4 texture coords

g Decal007
s off
f 25/25/7 26/26/7 27/27/7 28/28/7 
# 1 polygons

#
# object Decal008
#

v  16.4570 0.0175 15.5191
v  19.3146 0.0175 15.5191
v  19.3146 0.0175 12.6615
v  16.4570 0.0175 12.6615
# 4 vertices

vn 0.0000 1.0000 -0.0000
# 1 vertex normals

vt 0.0000 0.0000 0.0000
vt 1.0000 0.0000 0.0000
vt 1.0000 1.0000 0.0000
vt 0.0000 1.0000 0.0000
# 4 texture coords

g Decal008
s off
f 29/29/8 30/30/8 31/31/8 32/32/8 
# 1 polygons

#
# object Decal009
#

v  14.3965 0.0175 -26.1481
v  17.2541 0.0175 -26.1481
v  17.2541 0.0175 -29.0057
v  14.3965 0.0175 -29.0057
# 4 vertices

vn 0.0000 1.0000 -0.0000
# 1 vertex normals

vt 0.0000 0.0000 0.0000
vt 1.0000 0.0000 0.0000
vt 1.0000 1.0000 0.0000
vt 0.0000 1.0000 0.0000
# 4 texture coords

g Decal009
s off
f 33/33/9 34/34/9 35/35/9 36/36/9 
# 1 polygons

#
# object Decal010
#

v  -4.6683 0.0204 0.3536
v  -1.1472 0.0204 0.3536
v  -1.1472 0.0204 -3.1675
v  -4.6683 0.0204 -3.1675
# 4 vertices

vn 0.0000 1.0000 -0.0000
# 1 vertex normals

vt 0.0000 0.0000 0.0000
vt 1.0000 0.0000 0.0000
vt 1.0000 1.0000 0.0000
vt 0.0000 1.0000 0.0000
# 4 texture coords

g Decal010
s off
f 37/37/10 38/38/10 39/39/10 40/40/10 
# 1 polygons

#
# object Decal011
#

v  16.4060 0.0266 0.0870
v  21.3372 0.0266 0.0870
v  21.3372 0.0266 -4.8442
v  16.4060 0.0266 -4.8442
# 4 vertices

vn 0.0000 1.0000 -0.0000
# 1 vertex normals

vt 0.0000 0.0000 0.0000
vt 1.0000 0.0000 0.0000
vt 1.0000 1.0000 0.0000
vt 0.0000 1.0000 0.0000
# 4 texture coords

g Decal011
s off
f 41/41/11 42/42/11 43/43/11 44/44/11 
# 1 polygons

#
# object Decal012
#

v  -1.3752 0.0202 35.1146
v  0.2665 0.0202 32.0622
v  -2.7859 0.0202 30.4205
v  -4.4276 0.0202 33.4729
# 4 vertices

vn 0.0000 1.0000 -0.0000
# 1 vertex normals

vt 0.0000 0.0000 0.0000
vt 1.0000 0.0000 0.0000
vt 1.0000 1.0000 0.0000
vt 0.0000 1.0000 0.0000
# 4 texture coords

g Decal012
s off
f 45/45/12 46/46/12 47/47/12 48/48/12 
# 1 polygons

#
# object Decal013
#

v  -3.5724 0.0175 27.0277
v  -0.8783 0.0175 27.9804
v  0.0744 0.0175 25.2863
v  -2.6197 0.0175 24.3336
# 4 vertices

vn 0.0000 1.0000 -0.0000
# 1 vertex normals

vt 0.0000 0.0000 0.0000
vt 1.0000 0.0000 0.0000
vt 1.0000 1.0000 0.0000
vt 0.0000 1.0000 0.0000
# 4 texture coords

g Decal013
s off
f 49/49/13 50/50/13 51/51/13 52/52/13 
# 1 polygons

#
# object Decal014
#

v  10.5096 0.0153 27.7300
v  12.0353 0.0153 25.9346
v  10.2399 0.0153 24.4089
v  8.7142 0.0153 26.2043
# 4 vertices

vn 0.0000 1.0000 -0.0000
# 1 vertex normals

vt 0.0000 0.0000 0.0000
vt 1.0000 0.0000 0.0000
vt 1.0000 1.0000 0.0000
vt 0.0000 1.0000 0.0000
# 4 texture coords

g Decal014
s off
f 53/53/14 54/54/14 55/55/14 56/56/14 
# 1 polygons

