ply
format ascii 1.0
comment VCGLIB generated
element vertex 8
property float x
property float y
property float z
property float nx
property float ny
property float nz
element face 12
property list uchar int vertex_indices
end_header
-0.8655 -0.0853 2.1813 -0.3333333 -0.6666667 0.6666667 
-0.8655 -0.0853 1.8953 -0.8164966 -0.4082483 -0.4082483 
0.8562 -0.0853 1.8953 0.3333333 -0.6666667 -0.6666667 
0.8562 -0.0853 2.1813 0.8164966 -0.4082483 0.4082483 
-0.8655 0.4287 2.1813 -0.6666667 0.6666667 0.3333333 
0.8562 0.4287 2.1813 0.4082483 0.4082483 0.8164966 
0.8562 0.4287 1.8953 0.6666667 0.6666667 -0.3333333 
-0.8655 0.4287 1.8953 -0.4082483 0.4082483 -0.8164966 
3 0 1 2 
3 2 3 0 
3 4 5 6 
3 6 7 4 
3 0 3 5 
3 5 4 0 
3 3 2 6 
3 6 5 3 
3 2 1 7 
3 7 6 2 
3 1 0 4 
3 4 7 1 
