ply
format ascii 1.0
comment VCGLIB generated
comment TextureFile C:\Users\Amengol\Dropbox\_Fanshawe\Git\GameEngine_101\GameEngine_101\assets\textures\Ground_Overlay.bmp
element vertex 4
property float x
property float y
property float z
property uchar red
property uchar green
property uchar blue
property uchar alpha
property float texture_u
property float texture_v
element face 2
property list uchar int vertex_indices
property list uchar float texcoord
property uchar red
property uchar green
property uchar blue
property uchar alpha
end_header
-70 0 -70 192 192 192 255 0.000000 1.000000
-70 0 70 192 192 192 255 0.000000 0.000000
70 0 70 192 192 192 255 1.000000 0.000000
70 0 -70 192 192 192 255 1.000000 1.000000
3 0 1 2 6 0.000000 1.000000 0.000000 0.000000 1.000000 0.000000 149 149 149 0 
3 0 2 3 6 0.000000 1.000000 1.000000 0.000000 1.000000 1.000000 149 149 149 0 
