# 3ds Max Wavefront OBJ Exporter v0.97b - (c)2007 guruware
# File Created: 21.04.2018 22:22:29

#
# object Paladin_J_Nordstrom_Shield
#

v  0.0526 0.0069 -0.1182
v  0.0530 0.0062 -0.1389
v  0.0823 0.0003 -0.1382
v  0.0820 0.0010 -0.1175
v  0.0488 0.0144 0.1151
v  0.0494 0.0132 0.0800
v  0.0787 0.0073 0.0806
v  0.0782 0.0084 0.1158
v  0.0407 -0.0457 -0.0603
v  0.0521 0.0080 -0.0830
v  0.0814 0.0021 -0.0823
v  0.0701 -0.0516 -0.0596
v  0.0387 -0.0419 0.0603
v  0.0681 -0.0478 0.0610
v  0.0485 0.0150 0.1358
v  0.0778 0.0091 0.1365
v  -0.0831 0.0371 -0.1214
v  -0.0828 0.0364 -0.1421
v  -0.0534 0.0305 -0.1414
v  -0.0538 0.0312 -0.1207
v  -0.0870 0.0446 0.1119
v  -0.0864 0.0434 0.0768
v  -0.0570 0.0375 0.0774
v  -0.0576 0.0386 0.1126
v  -0.0933 -0.0079 -0.0750
v  -0.0837 0.0382 -0.0862
v  -0.0543 0.0323 -0.0855
v  -0.0639 -0.0138 -0.0743
v  -0.0956 -0.0033 0.0682
v  -0.1037 -0.0458 0.0475
v  -0.0744 -0.0518 0.0481
v  -0.0663 -0.0092 0.0689
v  -0.1021 -0.0490 -0.0519
v  -0.0727 -0.0549 -0.0512
v  -0.0873 0.0452 0.1326
v  -0.0580 0.0393 0.1333
v  -0.0036 0.0221 -0.1126
v  -0.0016 0.0181 -0.2371
v  0.1461 -0.0117 -0.2337
v  0.2015 -0.0193 -0.1079
v  -0.0068 0.0283 0.0805
v  0.2045 -0.0144 0.0853
v  0.0009 0.0132 -0.3913
v  -0.2088 0.0635 -0.1173
v  -0.1493 0.0479 -0.2405
v  -0.2182 0.0709 0.0756
v  0.1321 0.0183 0.0788
v  0.1961 -0.0030 0.0810
v  0.1933 -0.0078 -0.1057
v  0.1310 0.0119 -0.1083
v  0.1406 -0.0005 -0.2254
v  0.0026 0.0231 -0.3753
v  -0.0076 0.0466 0.2732
v  -0.2275 0.0784 0.2685
v  -0.0100 0.0345 0.2735
v  -0.1317 0.0649 -0.1143
v  -0.0001 0.0465 -0.1133
v  0.0026 0.0388 -0.2377
v  -0.0749 0.0480 -0.2345
v  0.2075 -0.0094 0.2785
v  0.0030 0.0324 -0.3124
v  -0.1386 0.0729 0.0726
v  -0.1430 0.0752 0.1981
v  -0.0038 0.0571 0.2011
v  -0.0029 0.0538 0.0746
v  0.1989 0.0018 0.2677
v  -0.0056 0.0550 0.2626
v  0.0774 0.0173 -0.2310
v  -0.1968 0.0710 -0.1147
v  -0.1403 0.0562 -0.2319
v  -0.2148 0.0853 0.2582
v  -0.2058 0.0781 0.0718
v  0.1315 0.0198 0.2044
# 73 vertices

vn -0.2154 -0.9760 0.0316
vn -0.1694 -0.7873 0.5928
vn -0.1855 -0.8205 -0.5408
vn -0.2155 -0.9760 0.0316
vn -0.1583 -0.7390 0.6548
vn -0.0852 -0.3534 -0.9316
vn -0.1761 -0.7758 -0.6058
vn -0.0586 -0.2983 0.9527
vn -0.1765 -0.8179 0.5476
vn -0.1913 -0.8483 -0.4937
vn 0.6730 -0.4945 -0.5501
vn 0.8243 -0.5221 -0.2190
vn 0.8305 -0.5565 -0.0258
vn -0.0555 -0.2173 -0.9745
vn -0.9707 -0.1254 -0.2050
vn -0.8267 -0.1631 -0.5385
vn -0.9879 -0.1545 -0.0118
vn 0.3004 0.9533 -0.0325
vn 0.6046 0.7953 -0.0454
vn 0.6129 0.7786 -0.1342
vn 0.2963 0.9532 -0.0602
vn 0.5397 0.7988 -0.2658
vn 0.1913 0.8808 -0.4332
vn 0.1045 0.4419 0.8910
vn -0.7375 -0.0293 0.6747
vn -0.1423 -0.6695 0.7291
vn 0.1278 0.9898 -0.0626
vn 0.2165 0.9749 -0.0520
vn 0.2176 0.9731 -0.0763
vn 0.1321 0.9879 -0.0817
vn 0.6662 -0.3395 0.6640
vn 0.2131 0.9688 -0.1263
vn 0.1256 0.9917 -0.0274
vn 0.1377 0.9903 -0.0202
vn 0.2188 0.9758 0.0045
vn 0.2146 0.9761 -0.0335
vn 0.5085 0.8261 0.2429
vn 0.2078 0.9145 0.3471
vn 0.2898 0.9539 -0.0775
vn -0.2282 0.9650 -0.1289
vn -0.1541 0.9544 -0.2556
vn -0.1101 0.9629 0.2464
vn -0.2110 0.9768 -0.0356
vn 0.2792 0.9602 -0.0069
# 44 vertex normals

vt 0.0181 0.9785 0.0000
vt 0.0083 0.9785 0.0000
vt 0.0083 0.9926 0.0000
vt 0.0181 0.9926 0.0000
vt 0.1638 0.9785 0.0000
vt 0.1473 0.9785 0.0000
vt 0.1473 0.9926 0.0000
vt 0.1638 0.9926 0.0000
vt 0.0626 0.9785 0.0000
vt 0.0346 0.9785 0.0000
vt 0.0346 0.9926 0.0000
vt 0.0626 0.9926 0.0000
vt 0.1193 0.9785 0.0000
vt 0.1193 0.9926 0.0000
vt 0.1736 0.9785 0.0000
vt 0.1736 0.9926 0.0000
vt 0.1917 0.9786 0.0000
vt 0.1819 0.9786 0.0000
vt 0.1819 0.9927 0.0000
vt 0.1917 0.9927 0.0000
vt 0.3622 0.9786 0.0000
vt 0.3456 0.9786 0.0000
vt 0.3456 0.9927 0.0000
vt 0.3622 0.9927 0.0000
vt 0.2310 0.9786 0.0000
vt 0.2082 0.9786 0.0000
vt 0.2082 0.9927 0.0000
vt 0.2310 0.9927 0.0000
vt 0.3229 0.9786 0.0000
vt 0.3003 0.9786 0.0000
vt 0.3003 0.9927 0.0000
vt 0.3229 0.9927 0.0000
vt 0.2536 0.9786 0.0000
vt 0.2536 0.9927 0.0000
vt 0.3719 0.9786 0.0000
vt 0.3719 0.9927 0.0000
vt 0.2847 0.7896 0.0000
vt 0.2847 0.7309 0.0000
vt 0.3556 0.7309 0.0000
vt 0.3831 0.7897 0.0000
vt 0.2847 0.8805 0.0000
vt 0.3861 0.8805 0.0000
vt 0.2847 0.6583 0.0000
vt 0.1863 0.7897 0.0000
vt 0.2138 0.7309 0.0000
vt 0.1833 0.8805 0.0000
vt 0.4313 0.8989 0.0000
vt 0.3983 0.9023 0.0000
vt 0.3968 0.8141 0.0000
vt 0.4318 0.8078 0.0000
vt 0.4203 0.7568 0.0000
vt 0.4164 0.7527 0.0000
vt 0.4842 0.6763 0.0000
vt 0.4846 0.6842 0.0000
vt 0.3917 0.8130 0.0000
vt 0.4997 0.9906 0.0000
vt 0.6047 0.9854 0.0000
vt 0.5000 0.9964 0.0000
vt 0.5483 0.8030 0.0000
vt 0.4908 0.8061 0.0000
vt 0.4878 0.7511 0.0000
vt 0.5251 0.7510 0.0000
vt 0.3947 0.9958 0.0000
vt 0.4856 0.7186 0.0000
vt 0.5599 0.8938 0.0000
vt 0.5650 0.9546 0.0000
vt 0.4973 0.9580 0.0000
vt 0.4950 0.8953 0.0000
vt 0.3998 0.9904 0.0000
vt 0.4995 0.9854 0.0000
vt 0.3931 0.9043 0.0000
vt 0.4501 0.7553 0.0000
vt 0.5897 0.8032 0.0000
vt 0.5847 0.8048 0.0000
vt 0.5557 0.7501 0.0000
vt 0.5592 0.7456 0.0000
vt 0.5973 0.8942 0.0000
vt 0.6047 0.9850 0.0000
vt 0.5991 0.9805 0.0000
vt 0.5919 0.8927 0.0000
vt 0.2847 0.9712 0.0000
vt 0.3890 0.9712 0.0000
vt 0.1805 0.9712 0.0000
vt 0.4297 0.9612 0.0000
vt 0.3947 0.9954 0.0000
# 85 texture coords

g Paladin_J_Nordstrom_Shield
s 1
f 1/1/1 2/2/1 3/3/1 4/4/1 
f 5/5/1 6/6/2 7/7/2 8/8/1 
f 9/9/3 10/10/3 11/11/3 12/12/3 
f 6/6/2 13/13/2 14/14/2 7/7/2 
f 13/13/2 9/9/3 12/12/3 14/14/2 
f 10/10/3 1/1/1 4/4/1 11/11/3 
f 15/15/1 5/5/1 8/8/1 16/16/1 
f 17/17/4 18/18/4 19/19/4 20/20/4 
f 21/21/1 22/22/5 23/23/5 24/24/1 
f 25/25/6 26/26/7 27/27/7 28/28/6 
f 29/29/8 30/30/9 31/31/9 32/32/8 
f 30/30/9 33/33/10 34/34/10 31/31/9 
f 33/33/10 25/25/6 28/28/6 34/34/10 
f 22/22/5 29/29/8 32/32/8 23/23/5 
f 26/26/7 17/17/4 20/20/4 27/27/7 
f 35/35/1 21/21/1 24/24/1 36/36/1 
f 37/37/1 38/38/1 39/39/11 40/40/12 
f 41/41/1 37/37/1 40/40/12 42/42/13 
f 38/38/1 43/43/14 39/39/11 
f 44/44/15 45/45/16 38/38/1 37/37/1 
f 46/46/17 44/44/15 37/37/1 41/41/1 
f 45/45/16 43/43/14 38/38/1 
f 47/47/18 48/48/19 49/49/20 50/50/21 
f 51/51/22 39/52/11 43/53/14 52/54/23 
f 49/49/20 40/55/12 39/52/11 51/51/22 
f 53/56/24 54/57/25 55/58/26 
f 56/59/27 57/60/28 58/61/29 59/62/30 
f 55/58/26 60/63/31 53/56/24 
f 59/62/30 58/61/29 61/64/32 
f 62/65/33 63/66/34 64/67/35 65/68/36 
f 53/56/24 60/63/31 66/69/37 67/70/38 
f 42/71/13 40/55/12 49/49/20 48/48/19 
f 61/64/32 68/72/39 51/51/22 52/54/23 
f 50/50/21 49/49/20 51/51/22 68/72/39 
f 44/73/15 69/74/40 70/75/41 45/76/16 
f 45/76/16 70/75/41 52/54/23 43/53/14 
f 46/77/17 54/78/25 71/79/42 72/80/43 
f 54/57/25 53/56/24 67/70/38 71/79/42 
f 55/81/26 41/41/1 42/42/13 60/82/31 
f 54/83/25 46/46/17 41/41/1 55/81/26 
f 64/67/35 73/84/44 47/47/18 65/68/36 
f 56/59/27 62/65/33 65/68/36 57/60/28 
f 60/85/31 42/71/13 48/48/19 66/69/37 
f 44/73/15 46/77/17 72/80/43 69/74/40 
f 72/80/43 71/79/42 63/66/34 62/65/33 
f 65/68/36 47/47/18 50/50/21 57/60/28 
f 69/74/40 56/59/27 59/62/30 70/75/41 
f 70/75/41 59/62/30 61/64/32 52/54/23 
f 71/79/42 67/70/38 64/67/35 63/66/34 
f 67/70/38 66/69/37 73/84/44 64/67/35 
f 58/61/29 68/72/39 61/64/32 
f 57/60/28 50/50/21 68/72/39 58/61/29 
f 66/69/37 48/48/19 47/47/18 73/84/44 
f 69/74/40 72/80/43 62/65/33 56/59/27 
# 48 polygons - 6 triangles

