# 3ds Max Wavefront OBJ Exporter v0.97b - (c)2007 guruware
# File Created: 17.04.2018 17:08:25

#
# object Bloom004
#

v  9.8457 0.9495 -34.8968
v  9.8138 1.0489 -34.7117
v  10.9611 1.1472 -34.7117
v  10.9611 0.9495 -34.8968
v  10.9611 1.9184 -34.8968
v  10.6491 1.9473 -34.7154
v  10.4372 0.9495 -34.7154
v  10.9611 -0.1715 -34.8968
v  11.0590 -0.2036 -34.7117
v  11.1589 0.9495 -34.7117
v  11.5225 2.7452 -29.7082
v  11.2731 1.9473 -34.7154
v  11.4850 0.9495 -34.7154
v  11.9039 0.9495 -29.7082
v  9.9922 0.9495 -34.8968
v  9.9633 0.6214 -34.7154
v  10.9611 0.4255 -34.7154
v  12.7568 1.5398 -29.7082
v  11.9589 1.2775 -34.7154
v  10.9611 1.4734 -34.7154
v  10.9611 1.8923 -29.7082
v  9.8138 0.8500 -34.7117
v  10.9611 0.7517 -34.7117
v  10.9611 2.0705 -34.8968
v  10.8632 2.1025 -34.7117
v  10.7633 0.9495 -34.7117
v  10.9611 0.0066 -29.7082
v  12.7568 0.3591 -29.7082
v  11.9589 0.6214 -34.7154
v  9.9633 1.2775 -34.7154
v  10.0182 0.9495 -29.7082
v  10.3997 -0.8463 -29.7082
v  10.6491 -0.0484 -34.7154
v  10.9611 -0.0195 -34.8968
v  11.2731 -0.0484 -34.7154
v  10.9611 1.2612 -29.3712
v  13.0283 1.1062 -29.3712
v  12.1084 1.0489 -34.7117
v  11.2739 0.9495 -29.3712
v  11.1159 3.0270 -29.3712
v  11.0590 2.1025 -34.7117
v  10.9611 0.6377 -29.3712
v  13.0283 0.7927 -29.3712
v  12.1084 0.8500 -34.7117
v  10.6483 0.9495 -29.3712
v  10.8063 -1.1281 -29.3712
v  10.8632 -0.2036 -34.7117
v  8.8939 1.1062 -29.3712
v  10.3997 2.7452 -29.7082
v  11.1159 -1.1281 -29.3712
v  9.1654 0.3591 -29.7082
v  11.9300 0.9495 -34.8968
v  8.8939 0.7927 -29.3712
v  10.8063 3.0270 -29.3712
v  9.1654 1.5398 -29.7082
v  11.5225 -0.8463 -29.7082
v  12.0765 0.9495 -34.8968
# 57 vertices

vn -0.0338 0.7779 -0.6275
vn -0.0614 0.9469 -0.3155
vn -0.0000 0.9414 -0.3374
vn 0.0000 0.7783 -0.6278
vn 0.3965 -0.0427 0.9170
vn 0.8040 -0.1469 0.5762
vn 0.8332 -0.0000 0.5530
vn 0.3968 -0.0000 0.9179
vn -0.7794 0.0342 0.6256
vn -0.9473 0.0621 0.3143
vn -0.9418 0.0000 0.3363
vn -0.7799 0.0000 0.6259
vn -0.9749 -0.2071 0.0816
vn -0.8040 -0.1469 0.5762
vn -0.8332 0.0000 0.5530
vn -0.9965 0.0000 0.0834
vn 0.0389 0.3903 0.9199
vn 0.1363 0.8048 0.5777
vn -0.0000 0.8301 0.5576
vn -0.0000 0.3906 0.9205
vn 0.1920 0.9780 -0.0818
vn 0.1363 0.8048 -0.5777
vn 0.0000 0.8301 -0.5576
vn 0.0000 0.9965 -0.0834
vn 0.0338 0.7779 0.6275
vn 0.0614 0.9469 0.3155
vn 0.0000 0.9414 0.3374
vn -0.0000 0.7783 0.6278
vn 0.7794 -0.0342 0.6256
vn 0.9473 -0.0621 0.3143
vn 0.9418 -0.0000 0.3363
vn 0.7799 -0.0000 0.6259
vn 0.0000 0.9965 0.0834
vn -0.1920 0.9780 0.0818
vn -0.1363 0.8048 0.5777
vn 0.0000 0.3906 -0.9205
vn -0.0389 0.3903 -0.9199
vn -0.1363 0.8048 -0.5777
vn 0.9965 -0.0000 0.0834
vn 0.9749 0.2071 0.0816
vn 0.8040 0.1469 0.5762
vn -0.3968 0.0000 0.9179
vn -0.3965 0.0427 0.9170
vn -0.8040 0.1469 0.5762
vn -0.0000 0.9997 -0.0228
vn 0.0785 0.9967 -0.0227
vn 0.0614 0.9469 -0.3155
vn -0.9997 0.0000 0.0230
vn -0.9966 -0.0795 0.0229
vn -0.9473 -0.0621 0.3143
vn 0.0000 0.9997 0.0228
vn -0.0785 0.9967 0.0227
vn -0.0614 0.9469 0.3155
vn 0.9997 -0.0000 0.0230
vn 0.9966 0.0795 0.0229
vn 0.9473 0.0621 0.3143
vn -0.0785 0.9967 -0.0227
vn 0.9749 -0.2071 0.0816
vn -0.9966 0.0795 0.0229
vn -0.3965 -0.0427 0.9170
vn 0.1920 0.9780 0.0818
vn 0.0389 0.3903 -0.9199
vn 0.0785 0.9967 0.0227
vn 0.9966 -0.0795 0.0229
vn -0.0389 0.3903 0.9199
vn -0.1920 0.9780 -0.0818
vn 0.3965 0.0427 0.9170
vn -0.9749 0.2071 0.0816
vn 0.0338 0.7779 -0.6275
vn -0.7794 -0.0342 0.6256
vn -0.0338 0.7779 0.6275
vn 0.7794 0.0342 0.6256
# 72 vertex normals

vt 0.0006 0.9989 0.0000
vt 0.0006 0.9660 0.0000
vt 0.2500 0.9660 0.0000
vt 0.2500 0.9989 0.0000
vt 0.4989 0.0058 0.0000
vt 0.4989 0.9660 0.0000
vt 0.2500 0.0058 0.0000
vt 0.0006 0.0058 0.0000
vt 0.4989 0.9989 0.0000
# 9 texture coords

g Bloom004
s off
f 1/1/1 2/2/2 3/3/3 4/4/4 
f 5/1/5 6/2/6 7/3/7 4/4/8 
f 8/1/9 9/2/10 10/3/11 4/4/12 
f 11/5/13 12/6/14 13/3/15 14/7/16 
f 15/1/17 16/2/18 17/3/19 4/4/20 
f 18/5/21 19/6/22 20/3/23 21/7/24 
f 1/1/25 22/2/26 23/3/27 4/4/28 
f 24/1/29 25/2/30 26/3/31 4/4/32 
f 27/7/33 28/5/34 29/6/35 17/3/19 
f 4/4/36 15/1/37 30/2/38 20/3/23 
f 31/7/39 32/5/40 33/6/41 7/3/7 
f 4/4/42 34/1/43 35/2/44 13/3/15 
f 36/7/45 37/5/46 38/6/47 3/3/3 
f 39/7/48 40/5/49 41/6/50 10/3/11 
f 42/7/51 43/5/52 44/6/53 23/3/27 
f 45/7/54 46/5/55 47/6/56 26/3/31 
f 2/2/2 48/8/57 36/7/45 3/3/3 
f 6/2/6 49/8/58 31/7/39 7/3/7 
f 9/2/10 50/8/59 39/7/48 10/3/11 
f 12/6/14 5/9/60 4/4/42 13/3/15 
f 16/2/18 51/8/61 27/7/33 17/3/19 
f 19/6/22 52/9/62 4/4/36 20/3/23 
f 22/2/26 53/8/63 42/7/51 23/3/27 
f 25/2/30 54/8/64 45/7/54 26/3/31 
f 29/6/35 52/9/65 4/4/20 17/3/19 
f 30/2/38 55/8/66 21/7/24 20/3/23 
f 33/6/41 34/9/67 4/4/8 7/3/7 
f 35/2/44 56/8/68 14/7/16 13/3/15 
f 38/6/47 57/9/69 4/4/4 3/3/3 
f 41/6/50 24/9/70 4/4/12 10/3/11 
f 44/6/53 57/9/71 4/4/28 23/3/27 
f 47/6/56 8/9/72 4/4/32 26/3/31 
# 32 polygons

#
# object Bloom003
#

v  16.2040 0.9657 30.6766
v  16.0189 1.0652 30.6447
v  16.0189 1.1635 31.7920
v  16.2040 0.9657 31.7920
v  16.2040 1.9347 31.7920
v  16.0226 1.9636 31.4800
v  16.0226 0.9657 31.2681
v  16.2040 -0.1553 31.7920
v  16.0189 -0.1873 31.8899
v  16.0189 0.9657 31.9898
v  11.0154 2.7614 32.3534
v  16.0226 1.9636 32.1040
v  16.0226 0.9657 32.3159
v  11.0154 0.9657 32.7348
v  16.2040 0.9657 30.8231
v  16.0226 0.6377 30.7942
v  16.0226 0.4418 31.7920
v  11.0154 1.5560 33.5877
v  16.0226 1.2937 32.7898
v  16.0226 1.4896 31.7920
v  11.0154 1.9086 31.7920
v  16.0189 0.8663 30.6447
v  16.0189 0.7680 31.7920
v  16.2040 2.0867 31.7920
v  16.0189 2.1188 31.6941
v  16.0189 0.9657 31.5942
v  11.0154 0.0229 31.7920
v  11.0154 0.3754 33.5877
v  16.0226 0.6377 32.7898
v  16.0226 1.2937 30.7942
v  11.0154 0.9657 30.8491
v  11.0154 -0.8300 31.2306
v  16.0226 -0.0321 31.4800
v  16.2040 -0.0032 31.7920
v  16.0226 -0.0321 32.1040
v  10.6784 1.2775 31.7920
v  10.6784 1.1225 33.8592
v  16.0189 1.0652 32.9393
v  10.6784 0.9657 32.1048
v  10.6784 3.0433 31.9468
v  16.0189 2.1188 31.8899
v  10.6784 0.6540 31.7920
v  10.6784 0.8090 33.8592
v  16.0189 0.8663 32.9393
v  10.6784 0.9657 31.4792
v  10.6784 -1.1118 31.6372
v  16.0189 -0.1873 31.6941
v  10.6784 1.1225 29.7248
v  11.0154 2.7614 31.2306
v  10.6784 -1.1118 31.9468
v  11.0154 0.3754 29.9963
v  16.2040 0.9657 32.7609
v  10.6784 0.8090 29.7248
v  10.6784 3.0433 31.6372
v  11.0154 1.5560 29.9963
v  11.0154 -0.8300 32.3534
v  16.2040 0.9657 32.9074
# 57 vertices

vn 0.6275 0.7779 -0.0338
vn 0.3155 0.9469 -0.0614
vn 0.3374 0.9414 0.0000
vn 0.6278 0.7783 0.0000
vn -0.9170 -0.0427 0.3965
vn -0.5762 -0.1469 0.8040
vn -0.5530 -0.0000 0.8332
vn -0.9179 -0.0000 0.3968
vn -0.6256 0.0342 -0.7794
vn -0.3143 0.0621 -0.9473
vn -0.3363 0.0000 -0.9418
vn -0.6259 0.0000 -0.7799
vn -0.0816 -0.2071 -0.9749
vn -0.5762 -0.1469 -0.8040
vn -0.5530 0.0000 -0.8332
vn -0.0834 0.0000 -0.9965
vn -0.9199 0.3903 0.0389
vn -0.5777 0.8048 0.1363
vn -0.5576 0.8301 -0.0000
vn -0.9205 0.3906 -0.0000
vn 0.0818 0.9780 0.1920
vn 0.5777 0.8048 0.1363
vn 0.5576 0.8301 0.0000
vn 0.0834 0.9965 0.0000
vn -0.6275 0.7779 0.0338
vn -0.3155 0.9469 0.0614
vn -0.3374 0.9414 -0.0000
vn -0.6278 0.7783 -0.0000
vn -0.6256 -0.0342 0.7794
vn -0.3143 -0.0621 0.9473
vn -0.3363 -0.0000 0.9418
vn -0.6259 -0.0000 0.7799
vn -0.0834 0.9965 -0.0000
vn -0.0818 0.9780 -0.1920
vn -0.5777 0.8048 -0.1363
vn 0.9205 0.3906 0.0000
vn 0.9199 0.3903 -0.0389
vn 0.5777 0.8048 -0.1363
vn -0.0834 -0.0000 0.9965
vn -0.0816 0.2071 0.9749
vn -0.5762 0.1469 0.8040
vn -0.9179 0.0000 -0.3968
vn -0.9170 0.0427 -0.3965
vn -0.5762 0.1469 -0.8040
vn 0.0228 0.9997 -0.0000
vn 0.0227 0.9967 0.0785
vn 0.3155 0.9469 0.0614
vn -0.0230 0.0000 -0.9997
vn -0.0229 -0.0795 -0.9966
vn -0.3143 -0.0621 -0.9473
vn -0.0228 0.9997 0.0000
vn -0.0227 0.9967 -0.0785
vn -0.3155 0.9469 -0.0614
vn -0.0230 -0.0000 0.9997
vn -0.0229 0.0795 0.9966
vn -0.3143 0.0621 0.9473
vn 0.0227 0.9967 -0.0785
vn -0.0816 -0.2071 0.9749
vn -0.0229 0.0795 -0.9966
vn -0.9170 -0.0427 -0.3965
vn -0.0818 0.9780 0.1920
vn 0.9199 0.3903 0.0389
vn -0.0227 0.9967 0.0785
vn -0.0229 -0.0795 0.9966
vn -0.9199 0.3903 -0.0389
vn 0.0818 0.9780 -0.1920
vn -0.9170 0.0427 0.3965
vn -0.0816 0.2071 -0.9749
vn 0.6275 0.7779 0.0338
vn -0.6256 -0.0342 -0.7794
vn -0.6275 0.7779 -0.0338
vn -0.6256 0.0342 0.7794
# 72 vertex normals

vt 0.5009 0.9989 0.0000
vt 0.5009 0.9660 0.0000
vt 0.7503 0.9660 0.0000
vt 0.7503 0.9989 0.0000
vt 0.9992 0.0058 0.0000
vt 0.9992 0.9660 0.0000
vt 0.7503 0.0058 0.0000
vt 0.5009 0.0058 0.0000
vt 0.9992 0.9989 0.0000
# 9 texture coords

g Bloom003
s off
f 58/10/73 59/11/74 60/12/75 61/13/76 
f 62/10/77 63/11/78 64/12/79 61/13/80 
f 65/10/81 66/11/82 67/12/83 61/13/84 
f 68/14/85 69/15/86 70/12/87 71/16/88 
f 72/10/89 73/11/90 74/12/91 61/13/92 
f 75/14/93 76/15/94 77/12/95 78/16/96 
f 58/10/97 79/11/98 80/12/99 61/13/100 
f 81/10/101 82/11/102 83/12/103 61/13/104 
f 84/16/105 85/14/106 86/15/107 74/12/91 
f 61/13/108 72/10/109 87/11/110 77/12/95 
f 88/16/111 89/14/112 90/15/113 64/12/79 
f 61/13/114 91/10/115 92/11/116 70/12/87 
f 93/16/117 94/14/118 95/15/119 60/12/75 
f 96/16/120 97/14/121 98/15/122 67/12/83 
f 99/16/123 100/14/124 101/15/125 80/12/99 
f 102/16/126 103/14/127 104/15/128 83/12/103 
f 59/11/74 105/17/129 93/16/117 60/12/75 
f 63/11/78 106/17/130 88/16/111 64/12/79 
f 66/11/82 107/17/131 96/16/120 67/12/83 
f 69/15/86 62/18/132 61/13/114 70/12/87 
f 73/11/90 108/17/133 84/16/105 74/12/91 
f 76/15/94 109/18/134 61/13/108 77/12/95 
f 79/11/98 110/17/135 99/16/123 80/12/99 
f 82/11/102 111/17/136 102/16/126 83/12/103 
f 86/15/107 109/18/137 61/13/92 74/12/91 
f 87/11/110 112/17/138 78/16/96 77/12/95 
f 90/15/113 91/18/139 61/13/80 64/12/79 
f 92/11/116 113/17/140 71/16/88 70/12/87 
f 95/15/119 114/18/141 61/13/76 60/12/75 
f 98/15/122 81/18/142 61/13/84 67/12/83 
f 101/15/125 114/18/143 61/13/100 80/12/99 
f 104/15/128 65/18/144 61/13/104 83/12/103 
# 32 polygons

