# 3ds Max Wavefront OBJ Exporter v0.97b - (c)2007 guruware
# File Created: 16.04.2018 21:32:00

mtllib Static_Coffin.mtl

#
# object Coffin01_b001
#

v  -19.1139 0.0588 18.4310
v  -18.5197 0.0588 18.4310
v  -18.5197 0.4048 18.4310
v  -19.1139 0.4048 18.4310
v  -18.3990 0.0588 16.9068
v  -18.3990 0.4048 16.9068
v  -18.5224 0.0588 16.3671
v  -19.1111 0.0588 16.3671
v  -19.1111 0.4048 16.3671
v  -18.5224 0.4048 16.3671
v  -19.2341 0.0588 16.9068
v  -19.2341 0.4048 16.9068
v  -18.5469 0.4048 18.4037
v  -19.0867 0.4048 18.4037
v  -18.4246 0.4048 16.9034
v  -19.0872 0.4048 16.3941
v  -18.5463 0.4048 16.3941
v  -19.2085 0.4048 16.9034
v  -18.5469 0.0588 18.4037
v  -19.0867 0.0588 18.4037
v  -18.4246 0.0588 16.9034
v  -19.0872 0.0588 16.3941
v  -18.5463 0.0588 16.3941
v  -19.2085 0.0588 16.9034
v  -19.1303 0.0588 18.4464
v  -18.5028 0.0588 18.4464
v  -18.3571 0.0588 16.9068
v  -19.2761 0.0588 16.9068
v  -18.5080 0.0588 16.3512
v  -19.1252 0.0588 16.3512
v  -18.5028 0.0000 18.4464
v  -19.1303 0.0000 18.4464
v  -18.3571 0.0000 16.9068
v  -19.1252 0.0000 16.3512
v  -18.5080 0.0000 16.3512
v  -19.2761 0.0000 16.9068
# 36 vertices

vn 0.0000 -0.0000 1.0000
vn 0.9973 -0.0000 -0.0728
vn 0.9969 -0.0000 0.0789
vn 0.0000 -0.0000 -1.0000
vn -0.9974 -0.0000 -0.0726
vn -0.9750 -0.0000 -0.2223
vn 0.9748 -0.0000 -0.2229
vn -0.9969 -0.0000 0.0787
vn 0.0000 1.0000 0.0000
vn -0.0000 1.0000 0.0000
vn 0.0000 1.0000 -0.0000
vn -0.0000 1.0000 -0.0000
vn -0.9967 -0.0000 -0.0812
vn -0.9971 -0.0000 0.0766
vn 0.0000 0.0000 1.0000
vn 0.9971 -0.0000 0.0764
vn 0.9728 -0.0000 0.2318
vn -0.9726 -0.0000 0.2324
vn 0.9967 -0.0000 -0.0810
vn 0.9964 0.0000 -0.0853
vn 0.9956 0.0000 0.0942
vn 0.0000 0.0000 -1.0000
vn -0.9964 0.0000 -0.0853
vn -0.9650 0.0000 -0.2621
vn 0.9650 0.0000 -0.2621
vn -0.9955 0.0000 0.0943
vn 0.0000 -1.0000 -0.0000
# 27 vertex normals

vt 0.2676 0.7776 0.0000
vt 0.2676 0.9959 0.0000
vt 0.0262 0.9959 0.0000
vt 0.0262 0.7776 0.0000
vt 0.2676 0.5707 0.0000
vt 0.0262 0.5707 0.0000
vt 0.0262 0.0038 0.0000
vt 0.2676 0.0038 0.0000
vt 0.0070 0.9959 0.0000
vt 0.0070 0.7776 0.0000
vt 0.0070 0.0038 0.0000
vt 0.0070 0.5707 0.0000
vt 0.2675 0.9959 0.0000
vt 0.2675 0.7776 0.0000
vt 0.2675 0.0038 0.0000
vt 0.2675 0.5707 0.0000
vt 0.4166 0.0294 0.0000
vt 0.8543 0.0294 0.0000
vt 0.9559 0.7202 0.0000
vt 0.3149 0.7202 0.0000
vt 0.8507 0.9696 0.0000
vt 0.4202 0.9696 0.0000
vt 0.8543 0.0030 0.0000
vt 0.4166 0.0030 0.0000
vt 0.9967 0.7178 0.0000
vt 0.8951 0.0269 0.0000
vt 0.4202 0.9959 0.0000
vt 0.8507 0.9959 0.0000
vt 0.2753 0.7271 0.0000
vt 0.3806 0.9765 0.0000
vt 0.8902 0.9765 0.0000
vt 0.9955 0.7271 0.0000
vt 0.3758 0.0269 0.0000
vt 0.2741 0.7178 0.0000
vt 0.8542 0.0294 0.0000
vt 0.4165 0.0294 0.0000
# 36 texture coords

g Coffin01_b001
usemtl Coffin01
s off
f 1/1/1 2/2/1 3/3/1 4/4/1 
f 5/5/2 6/6/2 3/7/3 2/8/3 
f 7/1/4 8/2/4 9/3/4 10/4/4 
f 11/5/5 12/6/5 9/4/6 8/1/6 
f 7/1/7 10/4/7 6/6/2 5/5/2 
f 1/8/8 4/7/8 12/6/5 11/5/5 
f 3/3/9 13/9/9 14/10/10 4/4/10 
f 13/11/9 3/7/9 6/6/11 15/12/11 
f 9/3/12 16/9/12 17/10/11 10/4/11 
f 12/6/12 18/12/12 16/10/12 9/4/12 
f 10/4/11 17/10/11 15/12/11 6/6/11 
f 18/12/12 12/6/12 4/7/10 14/11/10 
f 13/3/4 19/13/4 20/14/4 14/4/4 
f 19/15/13 13/7/13 15/6/14 21/16/14 
f 16/3/15 22/13/15 23/14/15 17/4/15 
f 18/6/16 24/16/16 22/14/17 16/4/17 
f 17/4/18 23/14/18 21/16/14 15/6/14 
f 24/16/16 18/6/16 14/7/19 20/15/19 
f 25/17/11 26/18/11 27/19/11 28/20/11 
f 27/19/11 29/21/11 30/22/11 28/20/11 
f 31/23/15 26/18/15 25/17/15 32/24/15 
f 33/25/20 27/19/20 26/18/21 31/26/21 
f 34/27/22 30/22/22 29/21/22 35/28/22 
f 36/29/23 28/20/23 30/22/24 34/30/24 
f 35/31/25 29/21/25 27/19/20 33/32/20 
f 32/33/26 25/17/26 28/20/23 36/34/23 
f 32/35/27 36/19/27 33/20/27 31/36/27 
f 36/19/27 34/21/27 35/22/27 33/20/27 
# 28 polygons

#
# object Coffin01_a001
#

v  -18.1399 0.0588 18.2658
v  -17.6991 0.0588 18.7123
v  -16.5011 0.0588 17.7344
v  -17.1467 0.0588 17.0804
v  -16.2117 0.0588 17.2366
v  -16.6453 0.0588 16.7974
v  -17.6991 0.0000 18.7123
v  -18.1399 0.0000 18.2658
v  -16.5011 0.0000 17.7344
v  -16.6453 0.0000 16.7974
v  -16.2117 0.0000 17.2366
v  -17.1467 0.0000 17.0804
# 12 vertices

vn 0.0000 1.0000 -0.0000
vn -0.7116 0.0000 0.7026
vn 0.7607 0.0000 0.6491
vn 0.6324 0.0000 0.7747
vn 0.7116 0.0000 -0.7026
vn -0.6393 0.0000 -0.7689
vn -0.4915 0.0000 -0.8709
vn 0.8645 0.0000 0.5026
vn -0.7665 0.0000 -0.6422
vn 0.0000 -1.0000 -0.0000
# 10 vertex normals

vt 0.4166 0.0294 0.0000
vt 0.8543 0.0294 0.0000
vt 0.9559 0.7202 0.0000
vt 0.3149 0.7202 0.0000
vt 0.8507 0.9696 0.0000
vt 0.4202 0.9696 0.0000
vt 0.8543 0.0030 0.0000
vt 0.4166 0.0030 0.0000
vt 0.9967 0.7178 0.0000
vt 0.8951 0.0269 0.0000
vt 0.4202 0.9959 0.0000
vt 0.8507 0.9959 0.0000
vt 0.2753 0.7271 0.0000
vt 0.3806 0.9765 0.0000
vt 0.8902 0.9765 0.0000
vt 0.9955 0.7271 0.0000
vt 0.3758 0.0269 0.0000
vt 0.2741 0.7178 0.0000
vt 0.8542 0.0294 0.0000
vt 0.4165 0.0294 0.0000
# 20 texture coords

g Coffin01_a001
usemtl Coffin01
s off
f 37/37/28 38/38/28 39/39/28 40/40/28 
f 39/39/28 41/41/28 42/42/28 40/40/28 
f 43/43/29 38/38/29 37/37/29 44/44/29 
f 45/45/30 39/39/30 38/38/31 43/46/31 
f 46/47/32 42/42/32 41/41/32 47/48/32 
f 48/49/33 40/40/33 42/42/34 46/50/34 
f 47/51/35 41/41/35 39/39/30 45/52/30 
f 44/53/36 37/37/36 40/40/33 48/54/33 
f 44/55/37 48/39/37 45/40/37 43/56/37 
f 48/39/37 46/41/37 47/42/37 45/40/37 
# 10 polygons

#
# object Coffin002
#

v  9.3589 0.0588 -0.5304
v  9.9530 0.0588 -0.5304
v  9.9530 0.4048 -0.5304
v  9.3589 0.4048 -0.5304
v  10.0737 0.0588 -2.0545
v  10.0737 0.4048 -2.0545
v  9.9503 0.0588 -2.5942
v  9.3616 0.0588 -2.5942
v  9.3616 0.4048 -2.5942
v  9.9503 0.4048 -2.5942
v  9.2386 0.0588 -2.0545
v  9.2386 0.4048 -2.0545
v  9.3425 0.4635 -0.5150
v  9.9699 0.4635 -0.5150
v  10.1157 0.4635 -2.0545
v  9.1967 0.4635 -2.0545
v  9.9648 0.4635 -2.6102
v  9.3476 0.4635 -2.6102
v  9.9699 0.4048 -0.5150
v  9.3425 0.4048 -0.5150
v  10.1157 0.4048 -2.0545
v  9.3476 0.4048 -2.6102
v  9.9648 0.4048 -2.6102
v  9.1967 0.4048 -2.0545
v  9.3425 0.0588 -0.5150
v  9.9699 0.0588 -0.5150
v  10.1157 0.0588 -2.0545
v  9.1967 0.0588 -2.0545
v  9.9648 0.0588 -2.6102
v  9.3476 0.0588 -2.6102
v  9.9699 0.0000 -0.5150
v  9.3425 0.0000 -0.5150
v  10.1157 0.0000 -2.0545
v  9.3476 0.0000 -2.6102
v  9.9648 0.0000 -2.6102
v  9.1967 0.0000 -2.0545
# 36 vertices

vn 0.0000 -0.0000 1.0000
vn 0.9973 -0.0000 -0.0728
vn 0.9969 -0.0000 0.0789
vn 0.0000 -0.0000 -1.0000
vn -0.9974 -0.0000 -0.0726
vn -0.9750 -0.0000 -0.2223
vn 0.9748 -0.0000 -0.2229
vn -0.9969 -0.0000 0.0787
vn 0.0000 1.0000 -0.0000
vn 0.0000 0.0000 1.0000
vn 0.9964 0.0000 -0.0853
vn 0.9955 0.0000 0.0942
vn 0.0000 0.0000 -1.0000
vn -0.9964 0.0000 -0.0853
vn -0.9650 0.0000 -0.2621
vn 0.9650 0.0000 -0.2621
vn -0.9955 0.0000 0.0943
vn 0.0000 -1.0000 -0.0000
vn 0.9956 0.0000 0.0942
# 19 vertex normals

vt 0.2676 0.7776 0.0000
vt 0.2676 0.9959 0.0000
vt 0.0262 0.9959 0.0000
vt 0.0262 0.7776 0.0000
vt 0.2676 0.5707 0.0000
vt 0.0262 0.5707 0.0000
vt 0.0262 0.0038 0.0000
vt 0.2676 0.0038 0.0000
vt 0.4166 0.0294 0.0000
vt 0.8543 0.0294 0.0000
vt 0.9559 0.7202 0.0000
vt 0.3149 0.7202 0.0000
vt 0.8507 0.9696 0.0000
vt 0.4202 0.9696 0.0000
vt 0.8543 0.0030 0.0000
vt 0.4166 0.0030 0.0000
vt 0.9967 0.7178 0.0000
vt 0.8951 0.0269 0.0000
vt 0.4202 0.9959 0.0000
vt 0.8507 0.9959 0.0000
vt 0.2753 0.7271 0.0000
vt 0.3806 0.9765 0.0000
vt 0.8902 0.9765 0.0000
vt 0.9955 0.7271 0.0000
vt 0.3758 0.0269 0.0000
vt 0.2741 0.7178 0.0000
vt 0.8542 0.0294 0.0000
vt 0.4165 0.0294 0.0000
# 28 texture coords

g Coffin002
usemtl Coffin01
s off
f 49/57/38 50/58/38 51/59/38 52/60/38 
f 53/61/39 54/62/39 51/63/40 50/64/40 
f 55/57/41 56/58/41 57/59/41 58/60/41 
f 59/61/42 60/62/42 57/60/43 56/57/43 
f 55/57/44 58/60/44 54/62/39 53/61/39 
f 49/64/45 52/63/45 60/62/42 59/61/42 
f 61/65/46 62/66/46 63/67/46 64/68/46 
f 63/67/46 65/69/46 66/70/46 64/68/46 
f 67/71/47 62/66/47 61/65/47 68/72/47 
f 69/73/48 63/67/48 62/66/49 67/74/49 
f 70/75/50 66/70/50 65/69/50 71/76/50 
f 72/77/51 64/68/51 66/70/52 70/78/52 
f 71/79/53 65/69/53 63/67/48 69/80/48 
f 68/81/54 61/65/54 64/68/51 72/82/51 
f 68/83/55 72/67/55 69/68/55 67/84/55 
f 72/67/55 70/69/55 71/70/55 69/68/55 
f 73/65/46 74/66/46 75/67/46 76/68/46 
f 75/67/46 77/69/46 78/70/46 76/68/46 
f 79/71/47 74/66/47 73/65/47 80/72/47 
f 81/73/48 75/67/48 74/66/56 79/74/56 
f 82/75/50 78/70/50 77/69/50 83/76/50 
f 84/77/51 76/68/51 78/70/52 82/78/52 
f 83/79/53 77/69/53 75/67/48 81/80/48 
f 80/81/54 73/65/54 76/68/51 84/82/51 
f 80/83/55 84/67/55 81/68/55 79/84/55 
f 84/67/55 82/69/55 83/70/55 81/68/55 
# 26 polygons

