# 3ds Max Wavefront OBJ Exporter v0.97b - (c)2007 guruware
# File Created: 19.03.2018 17:10:31

mtllib tv_screen.mtl

#
# object screen
#

v  0.2760 0.5728 0.6305
v  0.3178 0.5807 0.6162
v  0.2902 0.8764 0.6305
v  0.0843 0.8762 0.6572
v  -0.3593 0.8762 0.6572
v  0.0562 0.5316 0.6572
v  0.3179 1.1721 0.6162
v  0.2760 1.1799 0.6305
v  0.2274 1.3725 0.6305
v  0.0562 1.2208 0.6572
v  0.2565 0.3469 0.6162
v  0.2644 0.3545 0.6162
v  0.2277 0.3797 0.6305
v  0.0095 0.3386 0.6305
v  -0.3572 0.3278 0.6305
v  0.0006 0.3019 0.6162
v  0.2555 1.4059 0.6162
v  0.0087 1.4258 0.6305
v  -0.0003 1.4649 0.6162
v  -0.3568 1.4733 0.6162
v  -0.7131 1.4649 0.6162
v  -0.3572 1.4366 0.6305
v  -0.3591 1.2441 0.6572
v  -0.7748 1.2208 0.6572
v  -0.8029 0.8762 0.6572
v  -0.3591 0.5082 0.6572
v  -0.7239 0.3386 0.6305
v  -0.9223 1.4065 0.6162
v  -0.9321 1.3967 0.6162
v  -0.9028 1.3727 0.6305
v  -0.7230 1.4258 0.6305
v  -0.9547 1.1797 0.6305
v  -0.9890 1.1718 0.6162
v  -0.9699 0.8764 0.6305
v  -0.9890 0.5810 0.6162
v  -0.9547 0.5731 0.6305
v  -0.9034 0.3797 0.6305
v  -0.7748 0.5316 0.6572
v  -0.9236 0.3466 0.6162
v  0.3294 0.8765 0.6162
v  -0.7142 0.3019 0.6162
v  -0.3568 0.2934 0.6162
v  -1.0017 0.8765 0.6162
v  0.2644 1.3969 0.6162
v  -0.9321 0.3548 0.6162
# 45 vertices

vn 0.2355 -0.0367 0.9712
vn 0.3307 -0.0407 0.9429
vn 0.2393 -0.0000 0.9709
vn 0.0664 -0.0000 0.9978
vn 0.0000 0.0000 1.0000
vn 0.0500 -0.0597 0.9970
vn 0.3306 0.0408 0.9429
vn 0.2354 0.0369 0.9712
vn 0.1604 0.1702 0.9723
vn 0.0510 0.0569 0.9971
vn 0.1557 -0.2792 0.9475
vn 0.2654 -0.1571 0.9512
vn 0.1553 -0.1788 0.9715
vn 0.0302 -0.2633 0.9642
vn -0.0000 -0.2687 0.9632
vn 0.0326 -0.3700 0.9284
vn 0.1621 0.2717 0.9487
vn 0.0367 0.2522 0.9670
vn 0.0384 0.3522 0.9352
vn 0.0000 0.3634 0.9316
vn -0.0443 0.3541 0.9342
vn -0.0000 0.2535 0.9673
vn -0.0000 0.0702 0.9975
vn -0.0651 0.0573 0.9962
vn -0.0817 -0.0000 0.9967
vn -0.0000 -0.0748 0.9972
vn -0.0365 -0.2665 0.9631
vn -0.1761 0.2974 0.9384
vn -0.3069 0.1850 0.9336
vn -0.1941 0.1774 0.9648
vn -0.0448 0.2561 0.9656
vn -0.2848 0.0478 0.9574
vn -0.3954 0.0511 0.9171
vn -0.2895 -0.0000 0.9572
vn -0.3955 -0.0508 0.9171
vn -0.2848 -0.0475 0.9574
vn -0.1886 -0.1856 0.9644
vn -0.0640 -0.0599 0.9962
vn -0.1668 -0.3062 0.9373
vn 0.3426 -0.0000 0.9395
vn -0.0377 -0.3718 0.9276
vn 0.0001 -0.3842 0.9232
vn -0.4103 0.0000 0.9120
vn 0.2675 0.1540 0.9512
vn -0.3033 -0.1890 0.9340
# 45 vertex normals

g screen
usemtl Default
s 10
f 1//1 2//2 3//3 4//4 
f 1//1 4//4 5//5 6//6 
f 4//4 3//3 7//7 8//8 
f 4//4 8//8 9//9 10//10 
f 11//11 12//12 13//13 14//14 
f 11//11 14//14 15//15 16//16 
f 10//10 9//9 17//17 18//18 
f 19//19 20//20 21//21 22//22 
f 19//19 22//22 23//23 18//18 
f 23//23 24//24 5//5 4//4 
f 23//23 4//4 10//10 18//18 
f 5//5 25//25 26//26 6//6 
f 26//26 27//27 15//15 14//14 
f 26//26 14//14 13//13 6//6 
f 28//28 29//29 30//30 31//31 
f 28//28 31//31 22//22 21//21 
f 32//32 33//33 34//34 25//25 
f 32//32 25//25 5//5 24//24 
f 25//25 34//34 35//35 36//36 
f 25//25 36//36 37//37 38//38 
f 38//38 37//37 39//39 27//27 
f 25//25 38//38 27//27 26//26 
f 29//29 33//33 32//32 30//30 
f 1//1 6//6 13//13 12//12 
f 1//1 12//12 2//2 
f 3//3 2//2 40//40 7//7 
f 17//17 19//19 18//18 
f 15//15 41//41 42//42 16//16 
f 30//30 32//32 24//24 31//31 
f 33//33 43//43 35//35 34//34 
f 39//39 41//41 15//15 27//27 
f 31//31 24//24 23//23 22//22 
f 44//44 17//17 9//9 8//8 
f 44//44 8//8 7//7 
f 45//45 39//39 37//37 36//36 
f 45//45 36//36 35//35 
# 32 polygons - 4 triangles

